<svg xmlns="http://www.w3.org/2000/svg" width="31.198" height="55.003" viewBox="0 0 31.198 55.003">
  <path id="Award" d="M34.492,12.136c-.614-1.881-2.261-2.3-3.1-3.371-.762-1.124-.664-2.809-2.261-3.957s-3.2-.562-4.5-.928S22.448,2,20.457,2s-2.9,1.417-4.179,1.881-2.876-.244-4.5.928-1.5,2.833-2.261,3.957c-.836,1.075-2.458,1.49-3.1,3.371s.516,3.175.516,4.519-1.229,2.638-.516,4.519,2.261,2.3,3.1,3.371c.762,1.124.664,2.809,2.261,3.957s3.2.562,4.5.928,2.188,1.881,4.179,1.881,2.9-1.417,4.179-1.881,2.876.244,4.5-.928,1.5-2.833,2.261-3.957c.836-1.075,2.458-1.49,3.1-3.371s-.516-3.175-.516-4.519,1.229-2.638.516-4.519M20.457,26.425a9.77,9.77,0,1,1,9.832-9.77,9.8,9.8,0,0,1-9.832,9.77m4.916-9.77a4.916,4.916,0,1,1-4.916-4.885,4.9,4.9,0,0,1,4.916,4.885M24.66,35.12l-1.549,8.793L21.317,54,14.9,47.918,6.791,51.46,10.06,33.141a9.884,9.884,0,0,0,4.646,1.026A10.225,10.225,0,0,0,18,35.828a8.208,8.208,0,0,0,2.458.366,8.646,8.646,0,0,0,4.2-1.075m10.348,7.865-6.341-2.247,1.254-7.181a7.882,7.882,0,0,0,2.089-1.1l.295-.244Z" transform="translate(-5.234 -1)" fill="#fff" stroke="#0081e4" stroke-width="2"/>
</svg>
