<svg id="Baloon" xmlns="http://www.w3.org/2000/svg" width="374.166" height="160.452" viewBox="0 0 374.166 160.452">
  <path id="Path_372" data-name="Path 372" d="M956.223,311.8H681.244c-52.091,0-94.319-29.69-94.319-81.781h0c0-52.091,42.228-73.8,94.319-73.8h86.34c104.182,0,188.638,51.4,188.638,155.583Z" transform="translate(-584.491 -151.343)" fill="#fff"/>
  <path id="Path_373" data-name="Path 373" d="M680.678,313.663H958.091v-2.434c0-49.846-19.439-90.926-56.215-118.8-33.851-25.656-80.484-39.218-134.857-39.218H680.678c-27.89,0-51.435,6.157-68.089,17.807-19.02,13.3-28.664,32.963-28.664,58.43,0,25.532,9.862,47.079,28.52,62.31C629.748,305.883,653.98,313.663,680.678,313.663Zm272.529-4.868H680.678c-54.959,0-91.885-31.887-91.885-79.347,0-64.414,64.258-71.368,91.885-71.368h86.34C856.387,158.079,951.837,197.728,953.207,308.794Z" transform="translate(-583.925 -153.21)" fill="#e5e5e5"/>
</svg>
