<svg xmlns="http://www.w3.org/2000/svg" width="37.718" height="35" viewBox="0 0 37.718 35">
  <path id="CameraLogo" d="M5.772,5.889H11.43L15.2,2H26.517l3.772,3.889h5.658a3.832,3.832,0,0,1,3.772,3.889V33.111A3.832,3.832,0,0,1,35.946,37H5.772A3.832,3.832,0,0,1,2,33.111V9.778A3.832,3.832,0,0,1,5.772,5.889m15.087,5.833a9.579,9.579,0,0,0-9.43,9.722,9.579,9.579,0,0,0,9.43,9.722,9.579,9.579,0,0,0,9.43-9.722,9.579,9.579,0,0,0-9.43-9.722m0,3.889A5.836,5.836,0,1,1,15.2,21.444,5.748,5.748,0,0,1,20.859,15.611Z" transform="translate(-2 -2)" fill="#0081e4"/>
</svg>
