<svg xmlns="http://www.w3.org/2000/svg" width="42.007" height="35" viewBox="0 0 42.007 35">
  <path id="Camera" d="M6.2,5.889h6.3L16.7,2H29.3l4.2,3.889h6.3a4.054,4.054,0,0,1,4.2,3.889V33.111A4.054,4.054,0,0,1,39.806,37H6.2A4.054,4.054,0,0,1,2,33.111V9.778A4.054,4.054,0,0,1,6.2,5.889M23,11.722c-5.8,0-10.5,4.353-10.5,9.722s4.7,9.722,10.5,9.722,10.5-4.353,10.5-9.722S28.8,11.722,23,11.722m0,3.889a6.081,6.081,0,0,1,6.3,5.833A6.081,6.081,0,0,1,23,27.278a6.081,6.081,0,0,1-6.3-5.833A6.081,6.081,0,0,1,23,15.611Z" transform="translate(-2 -2)" fill="#fff"/>
</svg>
