<svg id="Card-Guy" xmlns="http://www.w3.org/2000/svg" width="114.158" height="233.925" viewBox="0 0 114.158 233.925">
  <path id="Path_295" data-name="Path 295" d="M17.961,4.562a5.593,5.593,0,0,1-5.375,6.682l-4.664,11.9L0,22.073,6.822,5.362a5.623,5.623,0,0,1,11.139-.8Z" transform="translate(25.586 131.077) rotate(-135)" fill="#ffb8b8"/>
  <path id="Path_296" data-name="Path 296" d="M4.014.374A4.28,4.28,0,0,1,7.162.235L14.424,2.75a4.266,4.266,0,0,1,2.737,2.96l6.556,25.134,8.725,16.687a7.5,7.5,0,0,1-2.766,9.877h0a7.485,7.485,0,0,1-10.333-2.638L7.624,34.675,1.8,21.435A21.6,21.6,0,0,1,.521,8.079L1.594,3.332A4.278,4.278,0,0,1,3.685.538Q3.847.448,4.014.374Z" transform="translate(36.6 124.291) rotate(-135)" fill="#6c63ff"/>
  <path id="Path_286" data-name="Path 286" d="M774.84,440.4a5.593,5.593,0,0,1,8.248,2.349l12.776-.337,2.1,7.714-18.049.223a5.623,5.623,0,0,1-5.074-9.949Z" transform="translate(-772.343 -349.833)" fill="#ffb8b8"/>
  <path id="Path_287" data-name="Path 287" d="M799.286,429.747a4.28,4.28,0,0,1-1.353-2.845l-.511-7.668a4.266,4.266,0,0,1,1.661-3.674l20.6-15.825L831.654,385.2a7.5,7.5,0,0,1,10.175-1.3h0a7.485,7.485,0,0,1,1.593,10.544l-13.947,18.619-9.929,10.515a21.6,21.6,0,0,1-11.8,6.383l-4.79.86a4.278,4.278,0,0,1-3.388-.839Q799.42,429.872,799.286,429.747Z" transform="translate(-782.46 -326.847)" fill="#6c63ff"/>
  <path id="Path_288" data-name="Path 288" d="M739.666,428.1l-6.615,1.652-9.521-24.73,9.764-2.438Z" transform="translate(-628.458 -205.153)" fill="#ffb8b8"/>
  <path id="Path_289" data-name="Path 289" d="M8.28,0H21.43V8.28H0A8.28,8.28,0,0,1,8.28,0Z" transform="matrix(0.97, -0.242, 0.242, 0.97, 91.361, 225.89)" fill="#2f2e41"/>
  <path id="Path_290" data-name="Path 290" d="M643.672,435.362h-6.819l-3.242-26.3h10.063Z" transform="translate(-592.17 -207.768)" fill="#ffb8b8"/>
  <path id="Path_291" data-name="Path 291" d="M625.279,449.89h13.15v8.28H617a8.28,8.28,0,0,1,8.28-8.28Z" transform="translate(-585.466 -224.245)" fill="#2f2e41"/>
  <ellipse id="Ellipse_35" data-name="Ellipse 35" cx="14.649" cy="14.649" rx="14.649" ry="14.649" transform="translate(33.896 8.463)" fill="#ffb8b8"/>
  <path id="Path_292" data-name="Path 292" d="M840.083,312.836c.027-1.959,3.4-2.2,4.45-.535s.376,3.849-.549,5.588c-.963,1.81-2.213,3.638-2.02,5.694a3.1,3.1,0,0,0,4.749,2.218c4.785-2.946,8.824-7.235,10.612-12.461,1.88-5.5.94-12.05-3.125-16.273s-11.354-5.418-16.179-2.042l-8.236-5.61a1.149,1.149,0,0,0-1.768,1.25l1.2,3.914-4.16-1.047a.914.914,0,0,0-1.021,1.364l1.428,2.219c-1.9-1.567-5.2.219-5.468,2.636s1.691,4.645,4,5.555,4.889.807,7.378.689A5.859,5.859,0,0,0,834.1,312.3,7.857,7.857,0,0,0,840.083,312.836Z" transform="translate(-791.565 -289.205)" fill="#2f2e41"/>
  <path id="Path_293" data-name="Path 293" d="M850.067,584.592h-.085l-10.532-.328a2.684,2.684,0,0,1-2.6-2.829l5.268-96.722L882.6,496.189l26.54,82.775a2.684,2.684,0,0,1-2.485,3.5l-12.131.322a2.709,2.709,0,0,1-2.563-1.687l-27.3-68.288a.895.895,0,0,0-1.716.2L852.721,582.3A2.684,2.684,0,0,1,850.067,584.592Z" transform="translate(-798.376 -368.104)" fill="#2f2e41"/>
  <path id="Path_294" data-name="Path 294" d="M882.982,456.62a13.647,13.647,0,0,1-8-2.6l-13.023-9.4a21.981,21.981,0,0,0-9.653-3.912l-6.267-.914a3.916,3.916,0,0,1-3.356-4.049l2.5-59.792-1.482-8.524a3.687,3.687,0,0,1,1.547-3.665l11.608-7.942a4.856,4.856,0,0,1,3.119-.832l.424.034a5.683,5.683,0,0,1,5.071,4.292l.445,1.78,7.723,13.729a50.954,50.954,0,0,1,5.1,12.931l7.321,30.084a54.26,54.26,0,0,1,1.318,7.961l2.425,27.054a2.714,2.714,0,0,1-1.705,2.779,13.736,13.736,0,0,1-5.106.988Z" transform="translate(-800.727 -315.747)" fill="#6c63ff"/>
</svg>
