<svg xmlns="http://www.w3.org/2000/svg" xmlns:xlink="http://www.w3.org/1999/xlink" width="855.999" height="2264.359" viewBox="0 0 855.999 2264.359">
  <g id="CareerRoadmap" transform="translate(-510 -2200)">
    <g id="Group_956" data-name="Group 956" transform="translate(470.197 2179.125)">
      <path id="Path_1220-2" data-name="Path 1220-2" d="M854.056,20.875c0,30.5,11.432,97.315-42.8,118.469-9.41,3.671-21.184,5.974-35.5,6.335-94.2,2.37-574.393-2.376-574.393-2.376-.792,0-1.557,0-2.349.027a145.994,145.994,0,0,0,0,291.951c.792.027,1.557.027,2.349.027h514.32c.792,0,1.584,0,2.377.027a145.981,145.981,0,0,1,0,291.924c-.792.027-1.584.027-2.377.027H201.362c-.792,0-1.557,0-2.349-.027a146.008,146.008,0,0,0,0,291.978s1.557.027,2.349.027H715.683c.792,0,1.584,0,2.377.027a145.981,145.981,0,0,1,0,291.924c-.792.027-1.584.027-2.377.027H201.362c-.792,0-1.557,0-2.349-.027a146.008,146.008,0,0,0,0,291.978c.792.027,1.557.027,2.349.027H715.683c.792,0,1.584,0,2.377.027a146,146,0,0,1,0,291.951c-.792.027-1.584.027-2.377.027H201.362c-.792,0-1.557,0-2.349-.027a146,146,0,0,0,0,291.978c27.26.416,584.261-3.511,584.36-2.926,83.535-1.752,78.3,100.215,78.3,100.215" fill="none" stroke="#3a3a3a" stroke-width="30"/>
    </g>
    <path id="Path_1221" data-name="Path 1221" d="M853.251,21.921c0,35.969,15.9,122.433-78.3,124.8S201.362,143.3,201.362,143.3c-.792,0-1.557,0-2.349.027a145.994,145.994,0,0,0,0,291.951c.792.027,1.557.027,2.349.027H715.683c.792,0,1.584,0,2.377.027a145.981,145.981,0,0,1,0,291.924c-.792.027-1.584.027-2.377.027H201.362c-.792,0-1.557,0-2.349-.027a146.008,146.008,0,0,0,0,291.978s1.557.027,2.349.027H715.683c.792,0,1.584,0,2.377.027a145.981,145.981,0,0,1,0,291.924c-.792.027-1.584.027-2.377.027H201.362c-.792,0-1.557,0-2.349-.027a146.008,146.008,0,0,0,0,291.978c.792.027,1.557.027,2.349.027H715.683c.792,0,1.584,0,2.377.027a146,146,0,0,1,0,291.951c-.792.027-1.584.027-2.377.027H201.362c-.792,0-1.557,0-2.349-.027a146,146,0,0,0,0,291.978c27.26.416,586.653-4.372,586.753-3.787,83.535-1.752,78.3,100.215,78.3,100.215" transform="translate(470.197 2179.125)" fill="none" stroke="#dededd" stroke-width="3" stroke-dasharray="20 10"/>
    <path id="tree" d="M102.36,1903.228V1888a15.642,15.642,0,0,1-5.363.93,16.021,16.021,0,0,1-16.087-15.955v-.133a15.776,15.776,0,0,1,4.862-11.547,16.107,16.107,0,0,1,28.207-15.266h.894a19.663,19.663,0,1,1-5.363,38.575v18.626Z" transform="translate(470.197 2179.125)" fill="#308233"/>
    <path id="tree-2" d="M790.437,1605.228V1590a15.643,15.643,0,0,1-5.363.93,16.021,16.021,0,0,1-16.087-15.955v-.133a15.776,15.776,0,0,1,4.862-11.547,16.107,16.107,0,0,1,28.207-15.266h.894a19.663,19.663,0,1,1-5.363,38.575v18.626Z" transform="translate(470.197 2179.125)" fill="#308233"/>
    <path id="tree-3" d="M783.912,1012.15V996.92a15.639,15.639,0,0,1-5.363.93A16.021,16.021,0,0,1,762.462,981.9c0-.044,0-.088,0-.133a15.776,15.776,0,0,1,4.862-11.547,16.107,16.107,0,0,1,28.207-15.266h.894a19.663,19.663,0,1,1-5.363,38.575v18.626Z" transform="translate(470.197 2179.125)" fill="#308233"/>
    <path id="tree-4" d="M764.437,122.873v-15.23a15.641,15.641,0,0,1-5.363.93,16.021,16.021,0,0,1-16.087-15.955v-.133a15.776,15.776,0,0,1,4.862-11.547,16.107,16.107,0,0,1,28.207-15.266h.894a19.663,19.663,0,1,1-5.363,38.575v18.626Z" transform="translate(470.197 2179.125)" fill="#308233"/>
    <path id="tree-5" d="M799.25,2165.229V2150a15.636,15.636,0,0,1-5.363.93,16.02,16.02,0,0,1-16.087-15.955v-.133a15.776,15.776,0,0,1,4.862-11.547,16.107,16.107,0,0,1,28.207-15.266h.894A19.663,19.663,0,1,1,806.4,2146.6v18.626Z" transform="translate(470.197 2179.125)" fill="#308233"/>
    <path id="car" d="M346.8,1269.169H326.7l-10.05,12.059v6.03h4.02a6.03,6.03,0,0,0,12.059,0h12.06a6.03,6.03,0,0,0,12.059,0h4.02v-6.03a4.007,4.007,0,0,0-3.992-4.02h-4.048l-6.029-8.039m-19.094,3.015h8.04v5.025H323.69l4.02-5.025m11.055,0H345.8l3.939,5.025H338.764v-5.025M326.7,1284.243a3.015,3.015,0,1,1-3.015,3.015h0a3.015,3.015,0,0,1,3.015-3.015m24.119,0a3.015,3.015,0,1,1-3.015,3.015h0A3.015,3.015,0,0,1,350.824,1284.243Z" transform="translate(470.197 2179.125)" fill="#c7001b"/>
    <path id="car-2" d="M619.843,1854.169h-20.1l-10.05,12.059v6.03h4.02a6.03,6.03,0,0,0,12.059,0h12.06a6.03,6.03,0,0,0,12.059,0h4.02v-6.03a4.007,4.007,0,0,0-3.992-4.02h-4.048l-6.029-8.039m-19.094,3.015h8.04v5.025h-12.06l4.02-5.025m11.055,0h7.035l3.939,5.025H611.8v-5.025m-12.059,12.059a3.015,3.015,0,1,1-3.015,3.015h0a3.015,3.015,0,0,1,3.015-3.015m24.119,0a3.015,3.015,0,1,1-3.015,3.015h0A3.015,3.015,0,0,1,623.863,1869.243Z" transform="translate(470.197 2179.125)" fill="#f15e12"/>
    <path id="car-3" d="M649.866,977.975h20.1l10.05,12.06v6.029h-4.02a6.03,6.03,0,0,1-12.059,0h-12.06a6.03,6.03,0,0,1-12.059,0H635.8v-6.03a4.006,4.006,0,0,1,3.992-4.02h4.048l6.03-8.04m19.093,3.02h-8.04v5.021h12.06l-4.02-5.025m-11.055,0H650.87l-3.939,5.025h10.975v-5.021m12.059,12.055a3.015,3.015,0,1,0,3.015,3.015,3.015,3.015,0,0,0-3.015-3.015h0m-24.119,0a3.015,3.015,0,1,0,3.015,3.015h0A3.015,3.015,0,0,0,645.846,993.049Z" transform="translate(470.197 2179.125)" fill="#116ab4"/>
    <path id="car-4" d="M452.333,393.975h20.1l10.05,12.06v6.029h-4.02a6.03,6.03,0,0,1-12.059,0h-12.06a6.03,6.03,0,0,1-12.059,0h-4.02v-6.03a4.006,4.006,0,0,1,3.992-4.02H446.3l6.03-8.04m19.093,3.02h-8.04v5.021h12.06l-4.02-5.025m-11.055,0h-7.035l-3.939,5.025h10.975v-5.021m12.059,12.055a3.015,3.015,0,1,0,3.015,3.015,3.015,3.015,0,0,0-3.015-3.015h0m-24.119,0a3.015,3.015,0,1,0,3.015,3.015h0A3.015,3.015,0,0,0,448.313,409.049Z" transform="translate(470.197 2179.125)" fill="#e50028"/>
    <path id="car-5" d="M627.728,102.754h-20.1l-10.05,12.059v6.03h4.02a6.03,6.03,0,0,0,12.059,0h12.06a6.03,6.03,0,0,0,12.059,0h4.02v-6.03a4.007,4.007,0,0,0-3.992-4.02h-4.048l-6.029-8.039m-19.094,3.015h8.04v5.025h-12.06l4.02-5.025m11.055,0h7.035l3.939,5.025H619.688v-5.025m-12.059,12.059a3.015,3.015,0,1,1-3.015,3.015h0a3.015,3.015,0,0,1,3.015-3.015m24.119,0a3.015,3.015,0,1,1-3.015,3.015h0A3.015,3.015,0,0,1,631.748,117.828Z" transform="translate(470.197 2179.125)" fill="#60862d"/>
    <g id="Hella1">
      <g id="Group_957" data-name="Group 957" transform="translate(470.197 2179.125)">
        <g id="Ellipse_92-2" data-name="Ellipse 92-2">
          <circle id="Ellipse_159" data-name="Ellipse 159" cx="97" cy="97" r="97" transform="translate(102.373 1943.719)" fill="#fff"/>
          <circle id="Ellipse_160" data-name="Ellipse 160" cx="95.5" cy="95.5" r="95.5" transform="translate(103.873 1945.219)" fill="none" stroke="#116ab4" stroke-width="3"/>
        </g>
      </g>
      <g id="_2007-2011" data-name=" 2007-2011" transform="translate(470.197 2179.125)" style="isolation: isolate">
        <text id="_2007-2011-2" data-name="2007-2011" transform="translate(335.373 1985.799)" fill="#116ab4" font-size="30" font-family="SegoeUI-Bold, Segoe UI" font-weight="700" style="isolation: isolate"><tspan x="0" y="0">2007-2011</tspan></text>
      </g>
      <g id="Redesigned_existing_Radar_sensor_WPF_based_tool_Responsible_for_UI_Design_and_UI_Development_Gained_experience_WPF_and_DirectX" data-name="Redesigned existing Radar sensor WPF based tool Responsible for UI Design and UI Development Gained experience WPF and DirectX" transform="translate(470.197 2179.125)" style="isolation: isolate">
        <text id="Redesigned_existing_Radar_sensor_WPF_based_tool" data-name="Redesigned existing Radar sensor (WPF based) tool" transform="translate(333.373 2022.799)" fill="#131313" font-size="20" font-family="SegoeUI, Segoe UI" style="isolation: isolate"><tspan x="0" y="0">Redesigned existing Radar sensor (WPF based) tool</tspan></text>
        <text id="Responsible_for_UI_Design_and_UI_Development" data-name="Responsible for UI Design and UI Development" transform="translate(333.373 2062.799)" fill="#131313" font-size="20" font-family="SegoeUI, Segoe UI" style="isolation: isolate"><tspan x="0" y="0">Responsible for UI Design and UI Development</tspan></text>
        <text id="Gained_experience_WPF_and_DirectX" data-name="Gained experience WPF and DirectX" transform="translate(333.373 2102.799)" fill="#131313" font-size="20" font-family="SegoeUI, Segoe UI" style="isolation: isolate"><tspan x="0" y="0">Gained experience WPF and DirectX</tspan></text>
      </g>
      <image id="Rectangle_519" data-name="Rectangle 519" width="161.161" height="115.4" transform="translate(589.433 4162.145)" xlink:href="../../../Desktop/HellaLogo.png"/>
    </g>
    <g id="Tieto2">
      <g id="Group_958" data-name="Group 958" transform="translate(470.197 2179.125)">
        <g id="Ellipse_102-2" data-name="Ellipse 102-2">
          <circle id="Ellipse_161" data-name="Ellipse 161" cx="97" cy="97" r="97" transform="translate(619.373 1651.719)" fill="#fff"/>
          <circle id="Ellipse_162" data-name="Ellipse 162" cx="95.5" cy="95.5" r="95.5" transform="translate(620.873 1653.219)" fill="none" stroke="#116ab4" stroke-width="3"/>
        </g>
      </g>
      <g id="_2011-2013" data-name=" 2011-2013" transform="translate(470.197 2179.125)" style="isolation: isolate">
        <text id="_2011-2013-2" data-name="2011-2013" transform="translate(140.373 1698.799)" fill="#116ab4" font-size="30" font-family="SegoeUI-Bold, Segoe UI" font-weight="700" style="isolation: isolate"><tspan x="0" y="0">2011-2013</tspan></text>
      </g>
      <g id="Collaborated_on_Wireframes_Designed_activity_flow_and_experience_Designed_complete_end_to_end_UI_along_with_code" data-name="Collaborated on Wireframes Designed activity flow and experience Designed complete end to end UI along with code" transform="translate(470.197 2179.125)" style="isolation: isolate">
        <text id="Collaborated_on_Wireframes" data-name="Collaborated on Wireframes" transform="translate(138.373 1735.799)" fill="#131313" font-size="20" font-family="SegoeUI, Segoe UI" style="isolation: isolate"><tspan x="0" y="0">Collaborated on Wireframes</tspan></text>
        <text id="Designed_activity_flow_and_experience" data-name="Designed activity flow and experience" transform="translate(138.373 1775.799)" fill="#131313" font-size="20" font-family="SegoeUI, Segoe UI" style="isolation: isolate"><tspan x="0" y="0">Designed activity flow and experience</tspan></text>
        <text id="Designed_complete_end_to_end_UI_along_with_code" data-name="Designed complete end to end UI along with code" transform="translate(138.373 1815.799)" fill="#131313" font-size="20" font-family="SegoeUI, Segoe UI" style="isolation: isolate"><tspan x="0" y="0">Designed complete end to end UI along with code</tspan></text>
      </g>
      <image id="Rectangle_520" data-name="Rectangle 520" width="119.33" height="107.397" transform="translate(1131.116 3874.146)" xlink:href="../../../Desktop/Career-Roadmap-image.png"/>
    </g>
    <g id="GS3">
      <g id="Group_959" data-name="Group 959" transform="translate(470.197 2179.125)">
        <g id="Ellipse_99-2" data-name="Ellipse 99-2">
          <circle id="Ellipse_163" data-name="Ellipse 163" cx="97" cy="97" r="97" transform="translate(102.373 1360.719)" fill="#fff"/>
          <circle id="Ellipse_164" data-name="Ellipse 164" cx="95.5" cy="95.5" r="95.5" transform="translate(103.873 1362.219)" fill="none" stroke="#116ab4" stroke-width="3"/>
        </g>
      </g>
      <g id="_2013-2013" data-name=" 2013-2013" transform="translate(470.197 2179.125)" style="isolation: isolate">
        <text id="_2013-2013-2" data-name="2013-2013" transform="translate(335.373 1402.799)" fill="#116ab4" font-size="30" font-family="SegoeUI-Bold, Segoe UI" font-weight="700" style="isolation: isolate"><tspan x="0" y="0">2013-2013</tspan></text>
      </g>
      <g id="Collaborated_on_wireframe_and_mockups_Designed_the_user_interface_for_new_add-ins_for_Outlook_Responsible_for_UI_Design_and_UI_Development" data-name="Collaborated on wireframe and mockups Designed the user interface for new add-ins for Outlook Responsible for UI Design and UI Development" transform="translate(470.197 2179.125)" style="isolation: isolate">
        <text id="Collaborated_on_wireframe_and_mockups" data-name="Collaborated on wireframe and mockups" transform="translate(333.373 1439.799)" fill="#131313" font-size="20" font-family="SegoeUI, Segoe UI" style="isolation: isolate"><tspan x="0" y="0">Collaborated on wireframe and mockups</tspan></text>
        <text id="Designed_the_user_interface_for_new_add-ins_for_Outlook" data-name="Designed the user interface for new add-ins for Outlook" transform="translate(333.373 1479.799)" fill="#131313" font-size="20" font-family="SegoeUI, Segoe UI" style="isolation: isolate"><tspan x="0" y="0">Designed the user interface for new add-ins for Outlook</tspan></text>
        <text id="Responsible_for_UI_Design_and_UI_Development-2" data-name="Responsible for UI Design and UI Development" transform="translate(333.373 1519.799)" fill="#131313" font-size="20" font-family="SegoeUI, Segoe UI" style="isolation: isolate"><tspan x="0" y="0">Responsible for UI Design and UI Development</tspan></text>
      </g>
      <image id="Rectangle_521" data-name="Rectangle 521" width="110.25" height="110.25" transform="translate(614.445 3585.744)" xlink:href="../../../Desktop/Career-Roadmap-image2.png"/>
    </g>
    <g id="SG4">
      <g id="Group_960" data-name="Group 960" transform="translate(470.197 2179.125)">
        <g id="Ellipse_103-2" data-name="Ellipse 103-2">
          <circle id="Ellipse_165" data-name="Ellipse 165" cx="97" cy="97" r="97" transform="translate(615.533 1066.719)" fill="#fff"/>
          <circle id="Ellipse_166" data-name="Ellipse 166" cx="95.5" cy="95.5" r="95.5" transform="translate(617.033 1068.219)" fill="none" stroke="#116ab4" stroke-width="3"/>
        </g>
      </g>
      <g id="_2013-2014" data-name=" 2013-2014" transform="translate(470.197 2179.125)" style="isolation: isolate">
        <text id="_2013-2014-2" data-name="2013-2014" transform="translate(136.536 1113.799)" fill="#116ab4" font-size="30" font-family="SegoeUI-Bold, Segoe UI" font-weight="700" style="isolation: isolate"><tspan x="0" y="0">2013-2014</tspan></text>
      </g>
      <g id="Collaborated_on_Wireframes_Designed_activity_flow_and_experience_Designed_complete_end_to_end_UI" data-name="Collaborated on Wireframes Designed activity flow and experience Designed complete end to end UI" transform="translate(470.197 2179.125)" style="isolation: isolate">
        <text id="Collaborated_on_Wireframes-2" data-name="Collaborated on Wireframes" transform="translate(134.536 1150.799)" fill="#131313" font-size="20" font-family="SegoeUI, Segoe UI" style="isolation: isolate"><tspan x="0" y="0">Collaborated on Wireframes</tspan></text>
        <text id="Designed_activity_flow_and_experience-2" data-name="Designed activity flow and experience" transform="translate(134.536 1190.799)" fill="#131313" font-size="20" font-family="SegoeUI, Segoe UI" style="isolation: isolate"><tspan x="0" y="0">Designed activity flow and experience</tspan></text>
        <text id="Designed_complete_end_to_end_UI" data-name="Designed complete end to end UI" transform="translate(134.536 1230.799)" fill="#131313" font-size="20" font-family="SegoeUI, Segoe UI" style="isolation: isolate"><tspan x="0" y="0">Designed complete end to end UI</tspan></text>
      </g>
      <image id="Rectangle_522" data-name="Rectangle 522" width="145.463" height="28.537" transform="translate(1109.998 3329.576)" xlink:href="../../../Desktop/Career-Roadmap-image3.png"/>
    </g>
    <g id="TCS5">
      <g id="Group_961" data-name="Group 961" transform="translate(470.197 2179.125)">
        <g id="Ellipse_100-2" data-name="Ellipse 100-2">
          <circle id="Ellipse_167" data-name="Ellipse 167" cx="97" cy="97" r="97" transform="translate(102.373 776.719)" fill="#fff"/>
          <circle id="Ellipse_168" data-name="Ellipse 168" cx="95.5" cy="95.5" r="95.5" transform="translate(103.873 778.219)" fill="none" stroke="#116ab4" stroke-width="3"/>
        </g>
      </g>
      <g id="_2014-2016" data-name=" 2014-2016" transform="translate(470.197 2179.125)" style="isolation: isolate">
        <text id="_2014-2016-2" data-name="2014-2016" transform="translate(335.373 818.799)" fill="#116ab4" font-size="30" font-family="SegoeUI-Bold, Segoe UI" font-weight="700" style="isolation: isolate"><tspan x="0" y="0">2014-2016</tspan></text>
      </g>
      <g id="Designed_wireframes_Designed_and_developed_end_to_end_UI_flow_Complete_UI_designed_for_and_inhouse_IDE" data-name="Designed wireframes Designed and developed end to end UI flow Complete UI designed for and inhouse IDE" transform="translate(470.197 2179.125)" style="isolation: isolate">
        <text id="Designed_wireframes" data-name="Designed wireframes" transform="translate(335.373 854.799)" fill="#131313" font-size="20" font-family="SegoeUI, Segoe UI" style="isolation: isolate"><tspan x="0" y="0">Designed wireframes</tspan></text>
        <text id="Designed_and_developed_end_to_end_UI_flow" data-name="Designed and developed end to end UI flow" transform="translate(335.373 894.799)" fill="#131313" font-size="20" font-family="SegoeUI, Segoe UI" style="isolation: isolate"><tspan x="0" y="0">Designed and developed end to end UI flow</tspan></text>
        <text id="Complete_UI_designed_for_and_inhouse_IDE" data-name="Complete UI designed for and inhouse IDE" transform="translate(335.373 934.799)" fill="#131313" font-size="20" font-family="SegoeUI, Segoe UI" style="isolation: isolate"><tspan x="0" y="0">Complete UI designed for and inhouse IDE</tspan></text>
      </g>
      <image id="Rectangle_523" data-name="Rectangle 523" width="163.989" height="41.549" transform="translate(587.575 3033.924)" xlink:href="../../../Desktop/Career-Roadmap-image4.png"/>
    </g>
    <g id="Sape6">
      <g id="Collaborated_on_collecting_user_feedback_Defined_creative_ways_to_improve_user_interaction_Increased_user_satisfaction_by" data-name="Collaborated on collecting user feedback Defined creative ways to improve user interaction Increased user satisfaction by" transform="translate(470.197 2179.125)" style="isolation: isolate">
        <text id="Collaborated_on_collecting_user_feedback" data-name="Collaborated on collecting user feedback" transform="translate(134.373 567.799)" fill="#131313" font-size="20" font-family="SegoeUI, Segoe UI" style="isolation: isolate"><tspan x="0" y="0">Collaborated on collecting user feedback</tspan></text>
        <text id="Defined_creative_ways_to_improve_user_interaction" data-name="Defined creative ways to improve user interaction" transform="translate(134.373 607.799)" fill="#131313" font-size="20" font-family="SegoeUI, Segoe UI" style="isolation: isolate"><tspan x="0" y="0">Defined creative ways to improve user interaction</tspan></text>
        <text id="Increased_user_satisfaction_by_40_" data-name="Increased user satisfaction by 40%" transform="translate(134.373 647.799)" fill="#131313" font-size="20" font-family="SegoeUI, Segoe UI" style="isolation: isolate"><tspan x="0" y="0">Increased user satisfaction by 40%</tspan></text>
      </g>
      <g id="Group_963" data-name="Group 963" transform="translate(470.197 2179.125)">
        <g id="Ellipse_104-2" data-name="Ellipse 104-2">
          <circle id="Ellipse_171" data-name="Ellipse 171" cx="97" cy="97" r="97" transform="translate(615.533 483.719)" fill="#fff"/>
          <circle id="Ellipse_172" data-name="Ellipse 172" cx="95.5" cy="95.5" r="95.5" transform="translate(617.033 485.219)" fill="none" stroke="#116ab4" stroke-width="3"/>
        </g>
      </g>
      <g id="_2016-2018" data-name=" 2016-2018" transform="translate(470.197 2179.125)" style="isolation: isolate">
        <text id="_2016-2018-2" data-name="2016-2018" transform="translate(138.536 531.799)" fill="#116ab4" font-size="30" font-family="SegoeUI-Bold, Segoe UI" font-weight="700" style="isolation: isolate"><tspan x="0" y="0">2016-2018</tspan></text>
      </g>
      <image id="Rectangle_524" data-name="Rectangle 524" width="152.987" height="76.494" transform="translate(1109.998 2725.734)" xlink:href="../../../Desktop/Career-Roadmap-image5.jpg"/>
    </g>
    <g id="Wells7">
      <g id="_2018-Present_Day" data-name=" 2018-Present Day" transform="translate(470.197 2179.125)" style="isolation: isolate">
        <text id="_2018-Present_Day-2" data-name="2018-Present Day" transform="translate(330.803 244.726)" fill="#116ab4" font-size="30" font-family="SegoeUI-Bold, Segoe UI" font-weight="700" style="isolation: isolate"><tspan x="0" y="0">2018-Present Day</tspan></text>
      </g>
      <g id="Group_962" data-name="Group 962" transform="translate(470.197 2179.125)">
        <g id="Ellipse_101-2" data-name="Ellipse 101-2">
          <circle id="Ellipse_169" data-name="Ellipse 169" cx="97" cy="97" r="97" transform="translate(102.373 192.719)" fill="#fff"/>
          <circle id="Ellipse_170" data-name="Ellipse 170" cx="95.5" cy="95.5" r="95.5" transform="translate(103.873 194.219)" fill="none" stroke="#116ab4" stroke-width="3"/>
        </g>
      </g>
      <g id="Responsible_for_Design_Development_of_the_User_Interface_Designed_theme_system_and_UI_resources_including_icon_designs_Ported_WPF_app_to_Web_with_JS_C" data-name="Responsible for Design Development of the User Interface Designed theme system and UI resources including icon designs Ported WPF app to Web with JS C" transform="translate(470.197 2179.125)" style="isolation: isolate">
        <text id="Responsible_for_Design_Development_of_the_User_Interface" data-name="Responsible for Design &amp; Development of the User Interface" transform="translate(328.803 281.726)" fill="#131313" font-size="20" font-family="SegoeUI, Segoe UI" style="isolation: isolate"><tspan x="0" y="0">Responsible for Design &amp; Development of the User Interface</tspan></text>
        <text id="Designed_theme_system_and_UI_resources_including_icon_designs" data-name="Designed theme system and UI resources including icon designs" transform="translate(328.803 321.726)" fill="#131313" font-size="20" font-family="SegoeUI, Segoe UI" style="isolation: isolate"><tspan x="0" y="0">Designed theme system and UI resources including icon designs</tspan></text>
        <text id="Ported_WPF_app_to_Web_with_JS_CSS_and_React" data-name="Ported WPF app to Web with JS, CSS and React" transform="translate(328.803 361.726)" fill="#131313" font-size="20" font-family="SegoeUI, Segoe UI" style="isolation: isolate"><tspan x="0" y="0">Ported WPF app to Web with JS, CSS and React</tspan></text>
      </g>
      <g id="Group_10" data-name="Group 10" transform="translate(470.197 2179.125)">
        <path id="Path_553" data-name="Path 553" d="M605.564,251.157h1.493l.71-5.756h-2.2Z" fill="#f5a4a8"/>
        <path id="Path_554" data-name="Path 554" d="M605.184,250.666h2.939A1.874,1.874,0,0,1,610,252.539v.061h-4.812Z" fill="#212232"/>
        <path id="Path_555" data-name="Path 555" d="M599.6,251.279h1.492l.71-5.756h-2.2Z" fill="#f5a4a8"/>
        <path id="Path_556" data-name="Path 556" d="M599.22,250.788h2.939a1.874,1.874,0,0,1,1.873,1.873v.061h-4.813Z" fill="#212232"/>
        <path id="Path_557" data-name="Path 557" d="M608.7,226.956l-.759,22.179H605.5L603.2,229.259l-.979,20.119h-3.043l-.841-23.83,9.342-.128Z" fill="#212232"/>
        <path id="Path_558" data-name="Path 558" d="M601.213,208.98l4.291-.136.956,17.664-6.783-.136Z" fill="#c0bfbf"/>
        <path id="Path_559" data-name="Path 559" d="M604.6,227.468l4.479-.128-1.28-6.4.128-3.711,1.024-6.015-2.816-1.664-.641-.768s-1.023,1.024-1.023,5.759S604.6,227.468,604.6,227.468Z" fill="#212232"/>
        <path id="Path_560" data-name="Path 560" d="M600.764,227.341s3.839-9.245,2.176-13.389c0,0-.566-4.528-1.5-5.168l-1.445.64-3.072,1.536,1.152,3.2-.384,2.688-.256,9.343Z" fill="#212232"/>
        <path id="Path_561" data-name="Path 561" d="M598.118,227.531a1.2,1.2,0,0,1-.575-1.6,1.28,1.28,0,0,1,.106-.183l-1.461-2.321,1.194-1.232,2.017,3.306a1.207,1.207,0,0,1-1.28,2.026Z" fill="#f5a4a8"/>
        <path id="Path_562" data-name="Path 562" d="M609.783,229.748a1.2,1.2,0,0,1-.1-1.694,1.185,1.185,0,0,1,.155-.145l-.736-2.642,1.5-.839.987,3.745a1.207,1.207,0,0,1-1.81,1.575Z" fill="#f5a4a8"/>
        <path id="Path_563" data-name="Path 563" d="M598.333,210.7l-1.408.256-3.072,7.423,2.816,7.295,1.92-1.792-1.792-4.351s.128-.512,0-.576.188-.476.128-.508c-.128-.068.256-.708.256-.708l1.536-3.2Z" fill="#212232"/>
        <path id="Path_564" data-name="Path 564" d="M607.548,211.215h1.408l1.536,7.935-.128,1.28.512,3.2.7,3.263-2.24.064-1.152-6.015-1.024-4.1Z" fill="#212232"/>
        <circle id="Ellipse_70" data-name="Ellipse 70" cx="2.99" cy="2.99" r="2.99" transform="translate(600.441 201.82)" fill="#f5a4a8"/>
        <path id="Path_565" data-name="Path 565" d="M605.8,202.393l.531-.193a3.777,3.777,0,0,0-2.654-1.013l.434-.434a1.969,1.969,0,0,0-2.027.627,8.609,8.609,0,0,0-1.46,1.864h-.569l.237.475-.83.475.852-.085a2.386,2.386,0,0,0,.081,1.229l.193.531a15.4,15.4,0,0,0,.772-1.737v.483s.531-.434.531-.724l.29.338.145-.531,1.786.531-.29-.434,1.11.145-.434-.531s1.255.627,1.3,1.158a2.764,2.764,0,0,0,.676,1.207l.29-.483S607.205,203.117,605.8,202.393Z" fill="#212232"/>
      </g>
      <image id="Rectangle_525" data-name="Rectangle 525" width="115.205" height="115.719" transform="translate(610.569 2411.216)" xlink:href="../../../Desktop/Career-Roadmap-image6.png"/>
    </g>
  </g>
</svg>
