<svg xmlns="http://www.w3.org/2000/svg" width="83.317" height="170.587" viewBox="0 0 83.317 170.587">
  <g id="Career-Guy" transform="translate(-153.899 -2479.166)">
    <path id="Path_380" data-name="Path 380" d="M0,26.677H6.917L10.207,0H0Z" transform="matrix(0.695, -0.719, 0.719, 0.695, 167.789, 2608.267)" fill="#ffb7b7"/>
    <path id="Path_381" data-name="Path 381" d="M0,0H13.621A8.68,8.68,0,0,1,22.3,8.679v.283H0Z" transform="matrix(0.695, -0.719, 0.719, 0.695, 184.129, 2626.497)" fill="#2f2e41"/>
    <path id="Path_330" data-name="Path 330" d="M239.091,435.639h6.916l3.29-26.676H239.09Z" transform="translate(-22.412 2207.41)" fill="#ffb7b7"/>
    <path id="Path_331" data-name="Path 331" d="M371.753,672.451h13.621a8.68,8.68,0,0,1,8.68,8.679v.283h-22.3Z" transform="translate(-156.838 1968.339)" fill="#2f2e41"/>
    <path id="Path_332" data-name="Path 332" d="M138.5,408.209l-5.6,4.054-18.3-19.683,8.27-5.983Z" transform="translate(47.516 2137.276)" fill="#ffb7b7"/>
    <path id="Path_333" data-name="Path 333" d="M294.521,643.419l-18.067,13.072-.165-.228a8.68,8.68,0,0,1,1.944-12.12h0l11.035-7.984Z" transform="translate(-103.151 1906.463)" fill="#2f2e41"/>
    <path id="Path_334" data-name="Path 334" d="M299,384.919s-7.256-5.435-15.1,0l-5.43,45.292h16.305l2.416-14.493,5.435-21.74Z" transform="translate(-101.585 2132.891)" fill="#ccc"/>
    <path id="Path_335" data-name="Path 335" d="M281.851,519.12l-29.263-9.555-13.95,11.07,14.82,22.657-7.751,10.166-.222-.253c-.962-1.1-23.552-26.911-23.486-34.233a55.085,55.085,0,0,1,2.495-14.633l7.338-10.416,10.415-3.063,34.481,4.839.056.008,13.931,8.48a10.944,10.944,0,0,1,4.968,8.059c.6,5.384,1.8,48.5,1.813,48.939l.008.283H282.456Z" transform="translate(-68.099 2068.64)" fill="#2f2e41"/>
    <path id="Path_336" data-name="Path 336" d="M263.322,445.1c-5.086-2.26-11.581-11.086-12.652-12.575-2.093,1.139-17.355,9.3-21.657,7.2-.625.345-3.45,2.03-3.959,4.574l-.128.638-.369-.536c-.068-.1-6.7-9.955,1.879-16.081,7.819-5.585,9.922-11.227,10.143-11.872l-4.242-22.423.111-.1c.348-.323,8.607-7.922,16.143-8.826l4.649-.819.2,17.7v22.656c3.756-.472,9.7-40.059,9.7-40.059l3.105,1.138c.8.154,9.819,1.955,12.212,5.544l.078.117-8.2,22.173-2.4,3.611v4.622l14.012,12.185-.2.208c-.478.5-10.81,11.247-16.829,11.245A3.9,3.9,0,0,1,263.322,445.1Z" transform="translate(-68.13 2131.839)" fill="#3f3d56"/>
    <ellipse id="Ellipse_39" data-name="Ellipse 39" cx="13.51" cy="13.51" rx="13.51" ry="13.51" transform="translate(171.516 2503.458) rotate(-61.337)" fill="#ffb7b7"/>
    <path id="Path_337" data-name="Path 337" d="M301.9,523.678a5.29,5.29,0,0,1,6.822-4.389l7.743-9.282,6.788,3.33-11.119,12.955a5.318,5.318,0,0,1-10.234-2.614Z" transform="translate(-115.449 2057.287)" fill="#a0616a"/>
    <path id="Path_338" data-name="Path 338" d="M315.412,449.131l12.148-16.4-3.009-16.248,4.882-18.306.123-.053c.1-.042,2.435-1.027,4.213-.289a2.847,2.847,0,0,1,1.585,1.647c1.209,3.021,4.122,33.793,4.246,35.155-.025.249-.623,6.118-1.839,8.55s-12.254,14.64-12.724,15.159l-.194.214Z" transform="translate(-123.49 2123.961)" fill="#3f3d56"/>
    <path id="Path_339" data-name="Path 339" d="M294.218,308.94c-4.5,5.656-12.2,4.619-18.371,2.55a19.543,19.543,0,0,1-3.477,12.758c.8-3.208-2.559-3.846-4.516-5.039-.754-.954-.128-2.378-.437-3.554-3.515-4.121-5.844-7.231-1.332-12.067,2.641-3.536,5.812-7.95,10.844-7.022,3.982-4.645,10.508-3.437,14.961-.188a31.807,31.807,0,0,1,5.425,5.1,21.594,21.594,0,0,1-2.818,7.079" transform="translate(-92.762 2185.666)" fill="#2f2e41"/>
    <path id="Path_341" data-name="Path 341" d="M307.54,534.915H292.116c.578-7.117,2.443-13.763,0-18.509H307.54A20.75,20.75,0,0,1,307.54,534.915Z" transform="translate(-109.676 2053.492)" fill="#6c63ff"/>
    <path id="Path_342" data-name="Path 342" d="M282.346,533.379a5.29,5.29,0,0,0-6.822-4.388l-7.743-9.282-6.788,3.33,11.119,12.955a5.318,5.318,0,0,0,10.234-2.614Z" transform="translate(-91.222 2051.534)" fill="#ffb7b7"/>
    <path id="Path_343" data-name="Path 343" d="M247.132,463.8c-.693-.519-16.982-12.763-18.8-16.4s-1.371-14.441-1.347-14.932c.028-.17,2.864-17.04,5.263-23.037,2.489-6.222,8.749-3.8,8.812-3.777l.189.076-2.726,31.8,14.869,19.724-6.058,6.7Z" transform="translate(-71.016 2119.452)" fill="#3f3d56"/>
  </g>
</svg>
