<svg id="Chart_Guy" xmlns="http://www.w3.org/2000/svg" width="160.981" height="187.047" viewBox="0 0 160.981 187.047">
  <path id="Path_355" data-name="Path 355" d="M614.643,375.925a7.827,7.827,0,0,1-1.513-.152h0q-.137-.027-.273-.059L503.383,350.226c-1.189-.277-1.979-1.025-1.837-1.74a1.189,1.189,0,0,1,.911-.841,3.316,3.316,0,0,1,1.619-.036l110.153,23c2.48.518,4.2,2.04,3.92,3.465a2.338,2.338,0,0,1-1.849,1.628A5.969,5.969,0,0,1,614.643,375.925Z" transform="translate(-501.529 -314.315)" fill="#3f3d56"/>
  <path id="Path_356" data-name="Path 356" d="M699.9,392.031a4.5,4.5,0,0,0,6.493-2.313l15.971.333-4.424-7.024-14.488.761a4.52,4.52,0,0,0-3.551,8.243Z" transform="translate(-609.98 -333.946)" fill="#ffb8b8"/>
  <path id="Path_357" data-name="Path 357" d="M718.108,375.439l-.083-4.9a2.022,2.022,0,0,1,1.818-2.036l28.7-2.77,23.911-7.84a5.73,5.73,0,1,1,3.412,10.94L749.4,376.674l-29.229.742a2.007,2.007,0,0,1-2.062-1.977Z" transform="translate(-621.248 -319.906)" fill="#3f3d56"/>
  <path id="Path_358" data-name="Path 358" d="M617.253,445.632h-5.48l-2.607-21.139h8.088Z" transform="translate(-477.923 -263.897)" fill="#ffb8b8"/>
  <path id="Path_359" data-name="Path 359" d="M794.486,682.88H776.815v-.223a6.878,6.878,0,0,1,6.878-6.878h10.793Z" transform="translate(-653.758 -495.833)" fill="#2f2e41"/>
  <path id="Path_360" data-name="Path 360" d="M653.253,445.632h-5.48l-2.607-21.139h8.088Z" transform="translate(-497.83 -263.897)" fill="#ffb8b8"/>
  <path id="Path_361" data-name="Path 361" d="M830.486,682.88H812.815v-.223a6.878,6.878,0,0,1,6.878-6.878h10.793Z" transform="translate(-673.665 -495.833)" fill="#2f2e41"/>
  <path id="Path_362" data-name="Path 362" d="M816.526,479.274l-1.309,77.644a1.788,1.788,0,0,1-1.95,1.751l-6.413-.583a1.788,1.788,0,0,1-1.621-1.643l-3.755-48.432a.447.447,0,0,0-.892.018l-1.876,49.541a1.788,1.788,0,0,1-1.787,1.72h-6.878a1.788,1.788,0,0,1-1.785-1.679l-4.815-78.784,28.609-7.152Z" transform="translate(-657.425 -382.967)" fill="#2f2e41"/>
  <ellipse id="Ellipse_48" data-name="Ellipse 48" cx="10.979" cy="10.979" rx="10.979" ry="10.979" transform="translate(127.371 1.441)" fill="#ffb8b8"/>
  <path id="Path_363" data-name="Path 363" d="M779.582,405a2,2,0,0,1-.61-1.415l-.74-52.946a12.74,12.74,0,0,1,8.619-12.267c1.029-4.667,6.5-5.251,9.695-5.181a4.955,4.955,0,0,1,4.013,2.2l2.288,3.432,5.042,2.956a12.753,12.753,0,0,1,6.021,13.775l-.776,3.531a81.151,81.151,0,0,0,.759,37.845l1.562,5.956a2.011,2.011,0,0,1-2.1,2.516l-1.814-.14a2.009,2.009,0,0,1-1.847-1.805l-.3-3a.224.224,0,0,0-.445,0l-.291,2.907a2.011,2.011,0,0,1-1.971,1.811l-25.673.4h-.032A2,2,0,0,1,779.582,405Z" transform="translate(-654.54 -306.388)" fill="#3f3d56"/>
  <path id="Path_364" data-name="Path 364" d="M792.961,291.981c.045,1.552,1.122,2.45,2.445,3.263a14.149,14.149,0,0,0,4.384,1.505,1.34,1.34,0,0,0,1.969-1.173l1.389-5.285a33.448,33.448,0,0,0,1.07-5.157,11.846,11.846,0,0,0-2.8-9.395c-2.343-2.427-6.406-3.289-9.214-1.419-3.332-4.255-18.562,5.147-14.8,8.106.668.526,1.69-.14,2.538-.2a2.708,2.708,0,0,1,2.338.743c.7.86.4,2.141.688,3.214a3,3,0,0,0,3.792,1.944,10.317,10.317,0,0,0,1.967-1.264,2.53,2.53,0,0,1,2.205-.48c.966.36,1.309,1.542,1.4,2.569a23.8,23.8,0,0,0,.64,3.034Z" transform="translate(-653.752 -273.232)" fill="#2f2e41"/>
  <path id="Path_366" data-name="Path 366" d="M607.425,173l-1.788,21.9-9.387,22.8,13.858-22.351Z" transform="translate(-470.78 -124.826)" opacity="0.2"/>
  <path id="Path_367" data-name="Path 367" d="M768.181,473.144a4.5,4.5,0,0,0,.142-6.891l5.98-14.812-8.137,1.643L761.735,466.9a4.519,4.519,0,0,0,6.446,6.246Z" transform="translate(-644.906 -371.778)" fill="#ffb8b8"/>
  <path id="Path_368" data-name="Path 368" d="M768.986,408.166l-4.606-1.66a2.022,2.022,0,0,1-1.258-2.423l7.6-27.813,1.158-25.137a5.73,5.73,0,1,1,11.439.693l-2.07,27.524-9.681,27.589a2.006,2.006,0,0,1-2.58,1.226Z" transform="translate(-646.147 -313.333)" fill="#3f3d56"/>
</svg>
