<svg xmlns="http://www.w3.org/2000/svg" xmlns:xlink="http://www.w3.org/1999/xlink" width="540.861" height="511.367" viewBox="0 0 540.861 511.367">
  <defs>
    <filter id="Rectangle_69" x="24.495" y="0" width="445.698" height="346.767" filterUnits="userSpaceOnUse">
      <feOffset input="SourceAlpha"/>
      <feGaussianBlur stdDeviation="7.5" result="blur"/>
      <feFlood flood-opacity="0.302"/>
      <feComposite operator="in" in2="blur"/>
      <feComposite in="SourceGraphic"/>
    </filter>
  </defs>
  <g id="Chart_Construction" transform="translate(-1161.949 -3375.919)">
    <circle id="Ellipse_53" data-name="Ellipse 53" cx="3.04" cy="3.04" r="3.04" transform="translate(1161.949 3398.419)" fill="#fff"/>
    <circle id="Ellipse_54" data-name="Ellipse 54" cx="3.04" cy="3.04" r="3.04" transform="translate(1173.487 3398.419)" fill="#fff"/>
    <circle id="Ellipse_55" data-name="Ellipse 55" cx="3.04" cy="3.04" r="3.04" transform="translate(1185.024 3398.419)" fill="#fff"/>
    <path id="Path_396" data-name="Path 396" d="M898.7,585.137a7.136,7.136,0,0,1,10.872-1.237l22.534-11.63-1.4,13.1-21.184,9.035a7.175,7.175,0,0,1-10.82-9.271Z" transform="translate(700.212 3171.021)" fill="#ffb8b8"/>
    <path id="Path_397" data-name="Path 397" d="M925.29,570.56a3.2,3.2,0,0,1-1.081-1.569l-1.792-5.79a3.2,3.2,0,0,1,1.126-3.492l18.264-13.8,19.781-36.7a10.287,10.287,0,1,1,16.25,12.618l-11.253,23.751a32.908,32.908,0,0,1-16.65,16.106l-21.4,9.284a3.2,3.2,0,0,1-2.6-.028A3.158,3.158,0,0,1,925.29,570.56Z" transform="translate(693.015 3193.087)" fill="#3f3d56"/>
    <circle id="Ellipse_60" data-name="Ellipse 60" cx="17.429" cy="17.429" r="17.429" transform="translate(1653.921 3660.206)" fill="#ffb8b8"/>
    <path id="Path_398" data-name="Path 398" d="M883.559,672.006h-8.7l-4.138-33.557h12.841Z" transform="translate(780.721 3207.2)" fill="#ffb8b8"/>
    <path id="Path_399" data-name="Path 399" d="M863.472,682.233h16.778V692.8H852.908A10.564,10.564,0,0,1,863.472,682.233Z" transform="translate(785.894 3194.486)" fill="#2f2e41"/>
    <path id="Path_400" data-name="Path 400" d="M923.559,672.007h-8.7l-4.138-33.557h12.841Z" transform="translate(769.106 3207.2)" fill="#ffb8b8"/>
    <path id="Path_401" data-name="Path 401" d="M903.472,682.234h16.778V692.8H892.908a10.564,10.564,0,0,1,10.564-10.564Z" transform="translate(774.279 3194.486)" fill="#2f2e41"/>
    <path id="Path_402" data-name="Path 402" d="M1010.136,726.673h-10.2a3.2,3.2,0,0,1-3.083-2.363l-14.675-54.429a.355.355,0,0,0-.7.114l2.964,51.62A3.193,3.193,0,0,1,981,724.98l-11.46-.955a3.2,3.2,0,0,1-2.907-2.813L956.191,612.82l4.039,2.424,37.844-6.425,15.228,114.24a3.194,3.194,0,0,1-3.166,3.615Z" transform="translate(683.167 3144.018)" fill="#2f2e41"/>
    <path id="Path_403" data-name="Path 403" d="M968.542,592.009a23.375,23.375,0,0,1-11.845-3.334,3.179,3.179,0,0,1-1.516-3.256c1.331-8.151,8.291-49.963,14.624-72.757,2.579-9.284,8.282-14.284,16.951-14.862,12.68-.832,23.95,9.088,25.123,22.14,2.07,23.026-6.339,55.741-10.051,68.738a3.191,3.191,0,0,1-5.03,1.637l-7.566-5.885a2.507,2.507,0,0,0-3.2.134C979.651,590.251,973.594,592.009,968.542,592.009Z" transform="translate(683.472 3193.502)" fill="#3f3d56"/>
    <path id="Path_404" data-name="Path 404" d="M905.625,443.738l6.386,26.966-9.227,22.707,6.388-22Z" transform="translate(771.411 3280.416)" opacity="0.2"/>
    <path id="Path_405" data-name="Path 405" d="M1004.311,469.508a11.737,11.737,0,0,0,4.533-.82c.635-.244,1.293-.445,1.927-.69,5.593-2.161,9.278-8.117,9.41-14.112s-2.972-11.813-7.581-15.647a29.342,29.342,0,0,0-16.559-6.259c-6.44-.491-13.692,1.142-17.291,6.505a5.649,5.649,0,0,0-1.06,4.883,3.124,3.124,0,0,0,.88,1.353c1.607,1.43,3.209.355,4.848.26,2.252-.13,4.274,1.692,5,3.828a11.533,11.533,0,0,1-.18,6.664,16.653,16.653,0,0,0-.839,4.052,4.073,4.073,0,0,0,1.688,3.587c1.407.851,3.255.358,4.663-.491a32.385,32.385,0,0,1,4.145-2.655c1.521-.625,3.564-.486,4.449.9a4.923,4.923,0,0,1,.563,1.624c.793,3.616.611,3.4,1.4,7.018Z" transform="translate(676.984 3223.031)" fill="#2f2e41"/>
    <path id="Path_406" data-name="Path 406" d="M930.508,698.312,821.37,660.3a7.491,7.491,0,0,1-4.605-9.527l28.361-81.435a5.488,5.488,0,0,1,6.98-3.374L964.931,605.26a5.583,5.583,0,0,1,3.432,7.1l-28.328,81.346a7.491,7.491,0,0,1-9.527,4.606Z" transform="translate(723.773 3156.55)" fill="#e6e6e6"/>
    <path id="Path_407" data-name="Path 407" d="M834.556,659.753l95.433,33.236a7.256,7.256,0,0,0,9.239-4.466l22.9-65.759a7.256,7.256,0,0,0-4.466-9.239L862.229,580.29a7.256,7.256,0,0,0-9.239,4.466l-22.9,65.759A7.256,7.256,0,0,0,834.556,659.753Z" transform="translate(719.901 3152.42)" fill="#fff"/>
    <path id="Path_408" data-name="Path 408" d="M868.1,623.907l-4.726-1.646a1.025,1.025,0,0,1-.63-1.3l1.646-4.726a1.025,1.025,0,0,1,1.3-.63l4.726,1.646a1.025,1.025,0,0,1,.63,1.3l-1.646,4.726A1.025,1.025,0,0,1,868.1,623.907Z" transform="translate(723.463 3156.11)" fill="#6c63ff"/>
    <path id="Path_409" data-name="Path 409" d="M862.095,641.163l-4.726-1.646a1.025,1.025,0,0,1-.63-1.3l1.646-4.726a1.025,1.025,0,0,1,1.3-.63l4.726,1.646a1.025,1.025,0,0,1,.63,1.3l-1.646,4.726a1.025,1.025,0,0,1-1.3.63Z" transform="translate(725.67 3149.681)" fill="#3f3d56"/>
    <path id="Path_410" data-name="Path 410" d="M856.086,658.419l-4.726-1.646a1.025,1.025,0,0,1-.63-1.3l1.646-4.726a1.025,1.025,0,0,1,1.3-.63l4.726,1.646a1.025,1.025,0,0,1,.63,1.3l-1.646,4.726A1.025,1.025,0,0,1,856.086,658.419Z" transform="translate(727.876 3143.252)" fill="#ccc"/>
    <path id="Path_411" data-name="Path 411" d="M905.475,635.121,882.7,627.191a1.024,1.024,0,0,1,.673-1.933l22.772,7.931a1.024,1.024,0,1,1-.673,1.933Z" transform="translate(704.705 3152.38)" fill="#ccc"/>
    <path id="Path_412" data-name="Path 412" d="M899.466,652.377l-22.772-7.931a1.024,1.024,0,0,1,.673-1.933l22.772,7.931a1.024,1.024,0,1,1-.673,1.934Z" transform="translate(706.45 3145.946)" fill="#ccc"/>
    <path id="Path_413" data-name="Path 413" d="M893.456,669.633,870.683,661.7a1.024,1.024,0,1,1,.673-1.933l22.772,7.931a1.024,1.024,0,0,1-.673,1.934Z" transform="translate(719.309 3139.511)" fill="#ccc"/>
    <path id="Path_414" data-name="Path 414" d="M980.177,671.366c.166-.4.322-.8.466-1.215a21.458,21.458,0,0,0-13.207-27.322l-7.485,21.492Z" transform="translate(682.075 3144.081)" fill="#0081e4"/>
    <path id="Path_415" data-name="Path 415" d="M948.276,665.674l7.485-21.493A21.458,21.458,0,1,0,968.5,672.718Z" transform="translate(691.573 3142.573)" fill="#3f3d56"/>
    <path id="Path_416" data-name="Path 416" d="M994.635,618.933a7.136,7.136,0,0,1,7.791-7.683l10.554-23.057,6.983,11.175-11.093,20.183a7.175,7.175,0,0,1-14.236-.617Z" transform="translate(672.01 3163.883)" fill="#ffb8b8"/>
    <path id="Path_417" data-name="Path 417" d="M1016.586,586.922a3.2,3.2,0,0,1-1.82-.568l-4.983-3.45a3.2,3.2,0,0,1-1.269-3.443l5.858-22.126-7.081-41.082a10.287,10.287,0,0,1,20.574-.1l5.8,25.634a32.907,32.907,0,0,1-3.162,22.948L1019.4,585.25a3.2,3.2,0,0,1-2.066,1.585A3.157,3.157,0,0,1,1016.586,586.922Z" transform="translate(668.328 3191.531)" fill="#3f3d56"/>
    <path id="Path_419" data-name="Path 419" d="M490.54,671.508h8.7l4.139-33.556h-12.84Z" transform="translate(924.757 3207.344)" fill="#ffb8b8"/>
    <path id="Path_420" data-name="Path 420" d="M589.914,782.4h17.134a10.918,10.918,0,0,1,10.919,10.919v.355H589.915Z" transform="translate(822.596 3093.616)" fill="#2f2e41"/>
    <path id="Path_421" data-name="Path 421" d="M441.54,671.508h8.7l4.139-33.556h-12.84Z" transform="translate(942.78 3207.344)" fill="#ffb8b8"/>
    <path id="Path_422" data-name="Path 422" d="M540.914,782.4h17.134a10.919,10.919,0,0,1,10.919,10.919v.354H540.915Z" transform="translate(840.718 3093.616)" fill="#2f2e41"/>
    <path id="Path_423" data-name="Path 423" d="M590.49,716.139H574.345a3.194,3.194,0,0,1-3.193-3.232l.938-76.662a1.064,1.064,0,0,0-2.121-.142l-9.4,77.229a3.2,3.2,0,0,1-3.17,2.807H541.1a3.193,3.193,0,0,1-3.184-3.442l10.763-137.721.293-.032,51.539-5.566L593.679,713.1A3.19,3.19,0,0,1,590.49,716.139Z" transform="translate(840.081 3155.471)" fill="#2f2e41"/>
    <rect id="Rectangle_67" data-name="Rectangle 67" width="1.654" height="0.276" transform="translate(1237.937 3709.613) rotate(-22.306)" fill="#e6e6e6"/>
    <rect id="Rectangle_68" data-name="Rectangle 68" width="1.546" height="0.258" transform="translate(1161.949 3752.815) rotate(-22.306)" fill="#e6e6e6"/>
    <g transform="matrix(1, 0, 0, 1, 1161.95, 3375.92)" filter="url(#Rectangle_69)">
      <g id="Rectangle_69-2" data-name="Rectangle 69" transform="translate(47 22.5)" fill="#fff" stroke="#aeaeae" stroke-width="1">
        <rect width="400.698" height="301.767" rx="31" stroke="none"/>
        <rect x="0.5" y="0.5" width="399.698" height="300.767" rx="30.5" fill="none"/>
      </g>
    </g>
    <ellipse id="Ellipse_56" data-name="Ellipse 56" cx="6.831" cy="6.831" rx="6.831" ry="6.831" transform="translate(1284.821 3497.287)" fill="#ccc"/>
    <ellipse id="Ellipse_57" data-name="Ellipse 57" cx="6.831" cy="6.831" rx="6.831" ry="6.831" transform="translate(1284.821 3520.073)" fill="#ccc"/>
    <ellipse id="Ellipse_58" data-name="Ellipse 58" cx="6.831" cy="6.831" rx="6.831" ry="6.831" transform="translate(1284.821 3542.86)" fill="#ccc"/>
    <ellipse id="Ellipse_59" data-name="Ellipse 59" cx="6.831" cy="6.831" rx="6.831" ry="6.831" transform="translate(1284.821 3565.646)" fill="#ccc"/>
    <path id="Path_395" data-name="Path 395" d="M697.579,403.373H472.913a.759.759,0,0,1,0-1.518H697.579a.759.759,0,0,1,0,1.518Z" transform="translate(839.821 3222.448)" fill="#3f3d56"/>
    <circle id="Ellipse_61" data-name="Ellipse 61" cx="17.429" cy="17.429" r="17.429" transform="translate(1400.186 3641.394)" fill="#ffb8b8"/>
    <path id="Path_425" data-name="Path 425" d="M644.346,404.473a7.478,7.478,0,0,0,.884.776l-1.83,35.145-7.61,3.9,4.379,12.254,14.143-5.588a5.677,5.677,0,0,0,3.566-5.805l-3.705-39.867a7.449,7.449,0,1,0-9.827-.811Z" transform="translate(805.987 3236.842)" fill="#ffb8b8"/>
    <path id="Path_427" data-name="Path 427" d="M535.913,404.473a7.478,7.478,0,0,1-.884.776l1.83,35.145,7.61,3.9-4.379,12.254-14.143-5.588a5.677,5.677,0,0,1-3.566-5.805l3.705-39.867a7.449,7.449,0,1,1,9.827-.811Z" transform="translate(847.849 3236.842)" fill="#ffb8b8"/>
    <path id="Path_429" data-name="Path 429" d="M592.715,424.653a11.456,11.456,0,0,1,6.415-10.763c5.3-2.735,8.626-8.569,7.168-13.9-1.867-6.819-11.147-11.241-18.667-8.9a34.462,34.462,0,0,0-5.862,2.724l-4.913,2.633a50.907,50.907,0,0,0-6.056,3.575,20.093,20.093,0,0,0-8,18.826c.968,6.932,5.507,13.289,11.721,17.642a19.825,19.825,0,0,0,8.032,3.57,10.672,10.672,0,0,0,8.472-1.919c3.4-2.895,3.052-7.743,1.951-11.791a8.58,8.58,0,0,1-.265-1.706Z" transform="translate(831.851 3238.14)" fill="#2f2e41"/>
    <path id="Path_426" data-name="Path 426" d="M636.641,461.222l5.354,15.214a3.193,3.193,0,0,1-2.4,4.2L623.8,483.688a8.868,8.868,0,0,1-5.839-16.748l14.174-7.482a3.193,3.193,0,0,1,4.5,1.764Z" transform="translate(814.3 3213.479)" fill="#3f3d56"/>
    <path id="Path_428" data-name="Path 428" d="M542.172,459.309a3.19,3.19,0,0,1,2.655.149L559,466.939a8.869,8.869,0,0,1-5.839,16.749l-15.786-3.057a3.193,3.193,0,0,1-2.4-4.195l5.354-15.214A3.19,3.19,0,0,1,542.172,459.309Z" transform="translate(842.883 3213.48)" fill="#3f3d56"/>
    <path id="Path_414-2" data-name="Path 414" d="M1029.649,741.163c.571-1.371,1.11-2.765,1.605-4.186a73.943,73.943,0,0,0-45.51-94.147l-25.793,74.059Z" transform="translate(468.044 2818.184)" fill="#0081e4"/>
    <path id="Path_415-2" data-name="Path 415" d="M999.729,721.176l25.793-74.061a73.942,73.942,0,1,0,43.905,98.333Z" transform="translate(425.602 2818.405)" fill="#3f3d56"/>
    <path id="Path_424" data-name="Path 424" d="M552.612,554a3.191,3.191,0,0,1-3.182-3.093c-.281-8.708-.763-38.84,4.841-60.961a29.041,29.041,0,0,1,26.819-21.884h0a29.222,29.222,0,0,1,28.781,18.467c9.421,23.917,18.321,53.4,7.225,58.02-14.544,6.06-52.884,8.761-64.288,9.444Q552.71,554,552.612,554Z" transform="translate(835.231 3205.885)" fill="#3f3d56"/>
  </g>
</svg>
