<svg xmlns="http://www.w3.org/2000/svg" xmlns:xlink="http://www.w3.org/1999/xlink" width="1941.351" height="430.008" viewBox="0 0 1941.351 430.008">
  <defs>
    <filter id="Path_106" x="0.39" y="43.166" width="1937.013" height="307.33" filterUnits="userSpaceOnUse">
      <feOffset dy="3" input="SourceAlpha"/>
      <feGaussianBlur stdDeviation="3" result="blur"/>
      <feFlood flood-opacity="0.161"/>
      <feComposite operator="in" in2="blur"/>
      <feComposite in="SourceGraphic"/>
    </filter>
    <filter id="Path_107" x="0" y="71.656" width="1941.351" height="238.03" filterUnits="userSpaceOnUse">
      <feOffset dy="3" input="SourceAlpha"/>
      <feGaussianBlur stdDeviation="3" result="blur-2"/>
      <feFlood flood-opacity="0.161"/>
      <feComposite operator="in" in2="blur-2"/>
      <feComposite in="SourceGraphic"/>
    </filter>
    <filter id="Path_108" x="3.108" y="163.732" width="1936.202" height="266.277" filterUnits="userSpaceOnUse">
      <feOffset dy="3" input="SourceAlpha"/>
      <feGaussianBlur stdDeviation="3" result="blur-3"/>
      <feFlood flood-opacity="0.161"/>
      <feComposite operator="in" in2="blur-3"/>
      <feComposite in="SourceGraphic"/>
    </filter>
  </defs>
  <g id="Chart_Background" transform="translate(10.351 -2727.492)">
    <g transform="matrix(1, 0, 0, 1, -10.35, 2727.49)" filter="url(#Path_106)">
      <path id="Path_106-2" data-name="Path 106" d="M95.041,2769.216s191.6-159.7,294.178-135.4S531.462,2759.658,650.5,2758.8s174.184-145.817,288.372-154.5,230.31,147.553,503.2,111.1S1869.785,2474.11,2013,2482.79" transform="translate(-84.69 -2431.87)" fill="none" stroke="red" stroke-width="3"/>
    </g>
    <g transform="matrix(1, 0, 0, 1, -10.35, 2727.49)" filter="url(#Path_107)">
      <path id="Path_107-2" data-name="Path 107" d="M95.041,2639.589s64.485-133.532,255-108.161,370.61,205.639,605.776,196.292,197.353-125.989,425.681-186.945,512.008-9.347,635.544-9.347" transform="translate(-84.69 -2431.87)" fill="none" stroke="#00b9ff" stroke-width="3"/>
    </g>
    <g transform="matrix(1, 0, 0, 1, -10.35, 2727.49)" filter="url(#Path_108)">
      <path id="Path_108-2" data-name="Path 108" d="M0,2827.537s144.317,23.625,280.93,20.543,288.634-221.868,387.242-231.113,213.651,241.385,486.878,231.113,581.075-241.9,762.884-244.977" transform="translate(12.35 -2431.87)" fill="none" stroke="#ff64cb" stroke-width="3"/>
    </g>
    <path id="Path_109" data-name="Path 109" d="M2,2747.417S225.207,2546.092,432.695,2550.2s494.068,304.042,698.474,298.906,377.231-288.761,533.1-338.965,254.738-32.869,254.738-32.869" transform="translate(0 254.62)" fill="none" stroke="#fa0" stroke-width="3"/>
  </g>
</svg>
