<svg xmlns="http://www.w3.org/2000/svg" xmlns:xlink="http://www.w3.org/1999/xlink" width="25.11" height="35.382" viewBox="0 0 25.11 35.382">
  <defs>
    <linearGradient id="linear-gradient" x1="0.5" y1="1" x2="0.5" gradientUnits="objectBoundingBox">
      <stop offset="0" stop-color="gray" stop-opacity="0.251"/>
      <stop offset="0.535" stop-color="gray" stop-opacity="0.122"/>
      <stop offset="1" stop-color="gray" stop-opacity="0.102"/>
    </linearGradient>
  </defs>
  <g id="Coffee" transform="translate(-386.529 -3589.162)">
    <g id="Group_7" data-name="Group 7" transform="translate(386.529 3602.223)" opacity="0.7">
      <path id="Path_173" data-name="Path 173" d="M949.241,353.788V349.8H929.312v18.434a3.886,3.886,0,0,0,3.886,3.886h12.157a3.886,3.886,0,0,0,3.886-3.886v-4.085a5.182,5.182,0,0,0,0-10.363Zm0,8.37v-6.377a3.189,3.189,0,0,1,0,6.377Z" transform="translate(-929.312 -349.802)" fill="url(#linear-gradient)"/>
    </g>
    <path id="Path_174" data-name="Path 174" d="M973.834,362.4a4.731,4.731,0,1,0,4.731,4.731,4.731,4.731,0,0,0-4.731-4.731Zm0,7.642a2.911,2.911,0,1,1,2.911-2.911,2.911,2.911,0,0,1-2.911,2.911Z" transform="translate(-568.017 3244.43)" fill="#6c63ff"/>
    <path id="Path_175" data-name="Path 175" d="M973.834,362.4a4.731,4.731,0,1,0,4.731,4.731,4.731,4.731,0,0,0-4.731-4.731Zm0,7.642a2.911,2.911,0,1,1,2.911-2.911,2.911,2.911,0,0,1-2.911,2.911Z" transform="translate(-568.017 3244.43)" opacity="0.1"/>
    <path id="Path_176" data-name="Path 176" d="M782.493,276.563h18.2v16.813a3.567,3.567,0,0,1-3.567,3.567H786.06a3.567,3.567,0,0,1-3.567-3.567Z" transform="translate(-394.872 3326.631)" fill="#ff6f00"/>
    <path id="Path_177" data-name="Path 177" d="M966.931,352.455v16.831a3.548,3.548,0,0,1-3.548,3.548h1.82a3.548,3.548,0,0,0,3.548-3.548V352.455Z" transform="translate(-564.39 3250.739)" opacity="0.1"/>
    <path id="Path_178" data-name="Path 178" d="M940.6,314.566a1.062,1.062,0,0,0-.8.408c-.239.433.194.921.589,1.218a7.83,7.83,0,0,1,1.993,1.855,2.326,2.326,0,0,1,.109,2.571c-.708.959-2.4,1.166-2.559,2.347-.1.758.551,1.4,1.215,1.785,1.639.939,3.752,1.189,4.939,2.659a3.829,3.829,0,0,1,2.685-1.843c1.095-.249,2.233-.231,3.343-.4a1.156,1.156,0,0,0,.922-.489c.31-.63-.574-1.385-.269-2.017.232-.481.915-.444,1.413-.637a1.841,1.841,0,0,0,.916-2.2,4.138,4.138,0,0,0-1.565-2.032,17.531,17.531,0,0,0-6.3-2.914,16.156,16.156,0,0,0-3.351-.775A16.746,16.746,0,0,0,940.6,314.566Z" transform="translate(-549.389 3275.062)" fill="#cbcbcb"/>
  </g>
</svg>
