<svg xmlns="http://www.w3.org/2000/svg" xmlns:xlink="http://www.w3.org/1999/xlink" width="284.617" height="227.899" viewBox="0 0 284.617 227.899">
  <defs>
    <linearGradient id="linear-gradient" x1="0.5" x2="0.5" y2="1" gradientUnits="objectBoundingBox">
      <stop offset="0" stop-color="#e8f6ff"/>
      <stop offset="1" stop-color="#94d1ff"/>
    </linearGradient>
    <linearGradient id="linear-gradient-2" x1="0.501" y1="1" x2="0.501" gradientUnits="objectBoundingBox">
      <stop offset="0" stop-color="gray" stop-opacity="0.251"/>
      <stop offset="0.54" stop-color="gray" stop-opacity="0.122"/>
      <stop offset="1" stop-color="gray" stop-opacity="0.102"/>
    </linearGradient>
    <linearGradient id="linear-gradient-3" x1="0.5" y1="1" x2="0.5" y2="0" xlink:href="#linear-gradient-2"/>
  </defs>
  <g id="ContactHero" transform="translate(-526.883 -634.05)">
    <circle id="Ellipse_186" data-name="Ellipse 186" cx="97.5" cy="97.5" r="97.5" transform="translate(565.883 666.95)" fill="url(#linear-gradient)"/>
    <g id="Group_1211" data-name="Group 1211" transform="translate(621.922 721.635)">
      <path id="Path_2480" data-name="Path 2480" d="M405.041,188.275H278.8a69.543,69.543,0,0,1,126.239,0Z" transform="translate(-278.802 -147.925)" fill="none"/>
      <path id="Path_2492" data-name="Path 2492" d="M419.716,222.885H368a2.416,2.416,0,1,1,0-4.832h51.714a2.416,2.416,0,1,1,0,4.832Z" transform="translate(-330.915 -190.036)" fill="#fff"/>
      <path id="Path_2493" data-name="Path 2493" d="M428.057,196.885H409.5a2.416,2.416,0,1,1,0-4.832h18.554a2.416,2.416,0,0,1,0,4.832Z" transform="translate(-355.835 -174.423)" fill="#fff"/>
      <g id="Group_1209" data-name="Group 1209" transform="translate(9.309 30.536)">
        <path id="Path_2494" data-name="Path 2494" d="M350.664,282.119l-1.276-.418c-4.554-1.535-7.546-2.516-8.611-4.918a3.738,3.738,0,0,1,1.814-4.966l.1-.044a4.067,4.067,0,0,1,3.417.073,4.066,4.066,0,0,1,2.239-2.582,3.738,3.738,0,0,1,4.955,1.844q.023.049.044.1c1.066,2.4-.215,5.278-2.133,9.685Z" transform="translate(-340.427 -268.924)" fill="#ff6584"/>
        <path id="Path_2495" data-name="Path 2495" d="M407.544,358.555h-36.7a4.294,4.294,0,0,1-4.289-4.289V330.914a4.294,4.294,0,0,1,4.289-4.289h36.7a4.294,4.294,0,0,1,4.289,4.289v23.352A4.294,4.294,0,0,1,407.544,358.555Zm-36.7-30.977a3.34,3.34,0,0,0-3.336,3.336v23.352a3.34,3.34,0,0,0,3.336,3.336h36.7a3.34,3.34,0,0,0,3.336-3.336V330.915a3.34,3.34,0,0,0-3.336-3.336Z" transform="translate(-358.023 -307.777)" fill="#3f3d56"/>
        <path id="Path_2496" data-name="Path 2496" d="M391.647,344.939a4.785,4.785,0,0,1-2.743-.858l-18.413-12.874.546-.781L389.45,343.3a3.855,3.855,0,0,0,4.343.034l18.955-12.815.534.79-18.955,12.815A4.784,4.784,0,0,1,391.647,344.939Z" transform="translate(-360.67 -310.336)" fill="#3f3d56"/>
        <circle id="Ellipse_182" data-name="Ellipse 182" cx="5.719" cy="5.719" r="5.719" transform="translate(25.216 28.857)" fill="#ff64cb"/>
      </g>
    </g>
    <g id="Group_1207" data-name="Group 1207" transform="translate(751.235 792.448)">
      <g id="Group_1208" data-name="Group 1208" transform="translate(0 0)">
        <path id="Path_2441" data-name="Path 2441" d="M409.642,351.079,354.1,339.1l-.722-.155a2,2,0,0,0-2.216,2.839l22.054,44.786a2,2,0,0,0,3.239.49l15.318-16.152a1.163,1.163,0,0,1,.855-.373,1.2,1.2,0,0,1,1.071.622l3.138,5.8a1.952,1.952,0,0,0,2.186,1l.016,0a1.955,1.955,0,0,0,1.549-1.857l.629-13.4a1.221,1.221,0,0,1,.123-.481,1.3,1.3,0,0,1,.315-.389l8.837-7.254a2,2,0,0,0-.844-3.5Zm.339,2.883-8.837,7.254a1.971,1.971,0,0,0-.311.314L354,340.289a.693.693,0,0,0-.129-.045.8.8,0,0,0-.667,1.424l38.511,28.289a1.917,1.917,0,0,0-.522.4l-15.318,16.152a1.2,1.2,0,0,1-1.943-.294l-22.054-44.786a1.2,1.2,0,0,1,1.33-1.7l.739.16,55.528,11.978a1.2,1.2,0,0,1,.51,2.1Z" transform="translate(-350.952 -338.896)" fill="#ff64cb"/>
        <path id="Path_2452" data-name="Path 2452" d="M409.642,351.079,354.1,339.1l-.722-.155a2,2,0,0,0-2.216,2.839l22.054,44.786a2,2,0,0,0,3.239.49l15.318-16.152a1.163,1.163,0,0,1,.855-.373,1.2,1.2,0,0,1,1.071.622l3.138,5.8a1.952,1.952,0,0,0,2.186,1l.016,0a1.955,1.955,0,0,0,1.549-1.857l.629-13.4a1.221,1.221,0,0,1,.123-.481,1.3,1.3,0,0,1,.315-.389l8.837-7.254a2,2,0,0,0-.844-3.5Zm.339,2.883-8.837,7.254a1.971,1.971,0,0,0-.311.314,1.861,1.861,0,0,0-.213.334,1.918,1.918,0,0,0-.145.38v0a1.892,1.892,0,0,0-.063.419l-.628,13.4a1.16,1.16,0,0,1-.928,1.114l-.008,0a1.163,1.163,0,0,1-1.315-.6l-3.138-5.807a1.993,1.993,0,0,0-1.638-1.041h0c-.046,0-.091,0-.136,0a1.944,1.944,0,0,0-.908.225,1.917,1.917,0,0,0-.522.4l-15.318,16.152a1.2,1.2,0,0,1-1.943-.294l-22.054-44.786a1.2,1.2,0,0,1,1.33-1.7l.739.16,55.528,11.978a1.2,1.2,0,0,1,.51,2.1Z" transform="translate(-350.952 -338.896)" fill="#3f3d56"/>
        <path id="Path_2453" data-name="Path 2453" d="M403.89,363.6l-.33.728-.2-.09v0l-46.8-21.221,39.079,28.711h0l.1.079-.471.644-.68-.5L356.08,343.656a.8.8,0,0,1,.667-1.424.7.7,0,0,1,.129.045l46.837,21.242Z" transform="translate(-353.831 -340.884)" fill="#3f3d56"/>
      </g>
    </g>
    <g id="Group_1215" data-name="Group 1215" transform="translate(602.611 819.933)" opacity="0.5">
      <path id="Path_2530" data-name="Path 2530" d="M922.311,324.015c6.1,0,8.937-3.276,8.937-7.671,0-7.671-6.181-13.184-13.851-13.184a13.926,13.926,0,1,0,0,27.852,13.7,13.7,0,0,0,7.883-2.583,1.051,1.051,0,0,0,.431-.691.687.687,0,0,0-.216-.643.875.875,0,0,0-1.27.152c-.507.663-2.022,1.794-6.5,1.894a12.065,12.065,0,1,1-.332-24.123c6.64-.076,11.986,4.618,11.986,11.186,0,4.171-2.9,6.1-6.392,6.033-1.119.076-1.342-.372-1.2-1.938.124-1.282,1.35-6.636,1.786-8.51a1.035,1.035,0,0,0-1.043-1.278h-.076a1.031,1.031,0,0,0-.9.907,7.907,7.907,0,0,0-.064.907,4.794,4.794,0,0,0-4.1-2.457c-3.947.076-7.371,3.648-7.523,8.861,0,3.5,1.862,5.509,5.066,5.509a5.9,5.9,0,0,0,4.766-2.6A2.417,2.417,0,0,0,922.311,324.015Zm-7.075-1.562c-2,0-3.2-1.49-3.2-3.871,0-4.1,2.757-6.7,5.362-6.7,2.309,0,3.2,1.562,3.276,3.648C920.673,318.877,918.516,322.453,915.236,322.453Z" transform="translate(-903.47 -303.16)" fill="url(#linear-gradient-2)"/>
    </g>
    <path id="Path_2531" data-name="Path 2531" d="M923.544,325.081c5.633,0,8.246-3.024,8.246-7.079,0-7.079-5.705-12.161-12.784-12.161a12.85,12.85,0,0,0,0,25.7,12.637,12.637,0,0,0,7.275-2.4.971.971,0,0,0,.4-.635.636.636,0,0,0-.2-.591.8.8,0,0,0-1.175.14c-.468.615-1.866,1.654-5.993,1.75A11.141,11.141,0,1,1,919,307.53c6.113-.088,11.063,4.3,11.063,10.359,0,3.847-2.681,5.633-5.909,5.565-1.031.068-1.239-.344-1.1-1.786.112-1.2,1.247-6.125,1.646-7.85a.955.955,0,0,0-.963-1.2h-.068a.951.951,0,0,0-.831.835,7.237,7.237,0,0,0-.06.839A4.395,4.395,0,0,0,919,312.025c-3.644.068-6.792,3.368-6.94,8.178,0,3.228,1.718,5.086,4.674,5.086a5.449,5.449,0,0,0,4.395-2.4A2.231,2.231,0,0,0,923.544,325.081Zm-6.528-1.442c-1.854,0-2.956-1.374-2.956-3.572,0-3.779,2.541-6.184,4.946-6.184,2.129,0,2.956,1.442,3.024,3.368,0,3.1-1.99,6.4-5.014,6.4Z" transform="translate(-302.472 515.163)" fill="#6c63ff"/>
    <g id="Group_1220" data-name="Group 1220" transform="translate(561.015 668.95)" opacity="0.5">
      <path id="Path_2549" data-name="Path 2549" d="M969.886,497.772c12.449,0,18.218-6.68,18.218-15.637,0-15.637-12.6-26.875-28.242-26.875a28.394,28.394,0,0,0,0,56.787,27.922,27.922,0,0,0,16.072-5.262,2.146,2.146,0,0,0,.879-1.406,1.4,1.4,0,0,0-.436-1.306,1.782,1.782,0,0,0-2.593.308c-1.031,1.354-4.119,3.656-13.248,3.863a24.6,24.6,0,1,1-.667-49.18c13.539-.152,24.446,9.413,24.446,22.772,0,8.5-5.921,12.449-13.056,12.3-2.277.152-2.733-.759-2.429-3.947.248-2.617,2.753-13.532,3.64-17.351a2.113,2.113,0,0,0-2.125-2.609h-.152a2.105,2.105,0,0,0-1.838,1.846,16.063,16.063,0,0,0-.128,1.85,9.75,9.75,0,0,0-8.35-5.01c-8.046.152-15.03,7.439-15.333,18.066,0,7.135,3.8,11.234,10.323,11.234a12.041,12.041,0,0,0,9.716-5.314C964.568,492.914,964.416,497.469,969.886,497.772Zm-14.422-3.2c-4.1,0-6.528-3.036-6.528-7.894,0-8.35,5.617-13.663,10.931-13.663,4.706,0,6.528,3.2,6.68,7.439-.016,6.836-4.411,14.127-11.087,14.127Z" transform="translate(-931.62 -455.26)" fill="url(#linear-gradient-3)"/>
    </g>
    <path id="Path_2550" data-name="Path 2550" d="M971.037,498.78c12.009,0,17.579-6.444,17.579-15.086,0-15.086-12.157-25.925-27.243-25.925a27.387,27.387,0,0,0,0,54.773,26.935,26.935,0,0,0,15.5-5.074,2.07,2.07,0,0,0,.847-1.358,1.351,1.351,0,0,0-.42-1.263,1.718,1.718,0,0,0-2.5.3c-.995,1.306-3.975,3.528-12.784,3.728a23.728,23.728,0,1,1-.643-47.442c13.064-.148,23.571,9.081,23.571,21.973,0,8.2-5.713,12.009-12.6,11.862-2.2.148-2.637-.731-2.345-3.807.24-2.525,2.653-13.052,3.508-16.736a2.038,2.038,0,0,0-2.05-2.513h-.148a2.03,2.03,0,0,0-1.774,1.782,15.464,15.464,0,0,0-.124,1.786,9.409,9.409,0,0,0-8.054-4.834c-7.763.148-14.5,7.191-14.782,17.431,0,6.884,3.66,10.839,9.96,10.839a11.616,11.616,0,0,0,9.373-5.126C965.911,494.094,965.764,498.485,971.037,498.78ZM957.122,495.7c-3.955,0-6.3-2.928-6.3-7.615,0-8.054,5.417-13.184,10.547-13.184,4.538,0,6.3,3.076,6.444,7.191C967.813,488.672,963.566,495.7,957.122,495.7Z" transform="translate(-372.113 212.182)" fill="#6c63ff"/>
    <circle id="Ellipse_178" data-name="Ellipse 178" cx="8.457" cy="8.457" r="8.457" transform="translate(718.313 682.91)" fill="#e6e6e6"/>
    <path id="Path_2543" data-name="Path 2543" d="M1007.963,401c4.023,0,5.889-2.161,5.889-5.054,0-5.054-4.075-8.689-9.129-8.689a9.189,9.189,0,0,0,0,18.358,9.025,9.025,0,0,0,5.194-1.7.691.691,0,0,0,.284-.455.451.451,0,0,0-.14-.423.575.575,0,0,0-.839.1c-.332.439-1.33,1.2-4.283,1.25a7.951,7.951,0,0,1-.216-15.9c4.367-.048,7.9,3.044,7.9,7.363,0,2.749-1.914,4.023-4.223,4-.735.048-.883-.244-.8-1.274.08-.847.891-4.375,1.175-5.593a.683.683,0,0,0-.687-.843h-.048a.679.679,0,0,0-.6.6,5.164,5.164,0,0,0-.04.6,3.152,3.152,0,0,0-2.7-1.618c-2.6.048-4.858,2.4-4.958,5.841,0,2.305,1.227,3.632,3.336,3.632a3.891,3.891,0,0,0,3.14-1.718S1006.181,400.907,1007.963,401Zm-4.662-1.031c-1.326,0-2.109-.983-2.109-2.553,0-2.7,1.818-4.419,3.536-4.419,1.522,0,2.109,1.031,2.161,2.4-.02,2.221-1.446,4.574-3.6,4.574Z" transform="translate(-257.191 318.832)" fill="#6c63ff" opacity="0.5"/>
    <rect id="Rectangle_576" data-name="Rectangle 576" width="12.35" height="11.922" transform="translate(699.231 827.064) rotate(71.027)" fill="#f2f2f2"/>
    <path id="Path_2510" data-name="Path 2510" d="M897.437,634.8,893.21,622.5l11.868-4.08,4.227,12.294Zm-3.422-11.883,3.8,11.064,10.681-3.672-3.8-11.064Z" transform="translate(-204.51 205.778)" fill="#3f3d56"/>
    <rect id="Rectangle_575" data-name="Rectangle 575" width="12.35" height="11.922" transform="matrix(0.933, -0.361, 0.361, 0.933, 560.956, 775.367)" fill="#f2f2f2"/>
    <path id="Path_2554" data-name="Path 2554" d="M375.583,314.239,371.2,312.8c-15.64-5.273-25.915-8.641-29.575-16.89a12.84,12.84,0,0,1,6.231-17.055q.169-.078.34-.152a13.966,13.966,0,0,1,11.734.251,13.966,13.966,0,0,1,7.688-8.868,12.839,12.839,0,0,1,17.017,6.335q.077.169.15.341c3.66,8.25-.739,18.127-7.326,33.261Z" transform="translate(420.456 365.126)" fill="#ff6584"/>
    <path id="Path_2509" data-name="Path 2509" d="M380.365,323.566l-12.125,4.689-4.527-11.705,12.125-4.689Zm-11.745,3.87,10.912-4.22-4.074-10.534-10.912,4.22Z" transform="translate(194.329 457.589)" fill="#3f3d56"/>
    <path id="Path_2553" data-name="Path 2553" d="M353.933,286.332l-1.683-.551c-6.008-2.026-9.956-3.319-11.362-6.489a4.932,4.932,0,0,1,2.394-6.552l.131-.058a5.365,5.365,0,0,1,4.508.1,5.365,5.365,0,0,1,2.953-3.407,4.932,4.932,0,0,1,6.537,2.434q.03.065.058.131c1.406,3.169-.284,6.964-2.814,12.778Z" transform="translate(186.456 441.9)" fill="#ff6584"/>
  </g>
</svg>
