<svg xmlns="http://www.w3.org/2000/svg" width="469.966" height="334.891" viewBox="0 0 469.966 334.891">
  <g id="Experience" transform="translate(-1215.197 -4895.992)">
    <line id="Line_12" data-name="Line 12" x2="293" transform="translate(1302.248 5065.375)" fill="none" stroke="#8e8e8e" stroke-miterlimit="10" stroke-width="0.5"/>
    <line id="Line_11" data-name="Line 11" x2="2" y2="279" transform="translate(1448.248 4925.375)" fill="none" stroke="#8e8e8e" stroke-miterlimit="10" stroke-width="0.5"/>
    <line id="Line_13" data-name="Line 13" x2="204" y2="200" transform="translate(1346.248 4964.375)" fill="none" stroke="#8e8e8e" stroke-miterlimit="10" stroke-width="0.5"/>
    <line id="Line_14" data-name="Line 14" x1="203" y2="201" transform="translate(1347.248 4964.375)" fill="none" stroke="#8e8e8e" stroke-miterlimit="10" stroke-width="0.5"/>
    <circle id="Ellipse_50" data-name="Ellipse 50" cx="64.489" cy="64.489" r="64.489" transform="translate(1383.343 5003.115)" fill="none" stroke="#8e8e8e" stroke-miterlimit="10" stroke-width="0.5"/>
    <ellipse id="Ellipse_51" data-name="Ellipse 51" cx="98.797" cy="98.797" rx="98.797" ry="98.797" transform="translate(1349.913 4965.996)" fill="none" stroke="#8e8e8e" stroke-miterlimit="10" stroke-width="0.5"/>
    <ellipse id="Ellipse_52" data-name="Ellipse 52" cx="146.495" cy="139.801" rx="146.495" ry="139.801" transform="translate(1302.214 4924.992)" fill="none" stroke="#8e8e8e" stroke-miterlimit="10" stroke-width="0.5"/>
    <path id="Path_375" data-name="Path 375" d="M116.36,117.125s79.248-20.518,84.172-18.548,44.484,18.548,53.347,18.548,46.782-14.212,46.782-14.212v59.024l-10.826,39.641s-18.668,58.189-26.118,60.947c-13.3,4.924-63.185,36.062-63.185,36.062l-31.967-65.247L95.807,201.579Z" transform="translate(1247.639 4863.534)" fill="#07cdff" stroke="#2676bd" stroke-miterlimit="10" stroke-width="1" opacity="0.3"/>
    <path id="Path_376" data-name="Path 376" d="M158.4,155.049l44.891-83.432s43.912,43.872,52.775,43.872,30.2.821,30.2.821L302.848,160.3,321.4,199.943l-73.7,43.088-44.976,53.922-21.667-75.425L74.193,199.943Z" transform="translate(1245.453 4865.17)" fill="#07cdff" stroke="#2676bd" stroke-miterlimit="10" stroke-width="1" opacity="0.3"/>
    <path id="Path_377" data-name="Path 377" d="M153.311,153.85l43.726-31.434L221.2,137.928,240.572,155l25.443,18.22,50.294,25.525-74.234,43.938L197.06,314.549l-57.314-59.3,11.572-57.061Z" transform="translate(1252.083 4866.369)" fill="#0081e4" stroke="#2676bd" stroke-miterlimit="10" stroke-width="1" opacity="0.3"/>
    <path id="Path_378" data-name="Path 378" d="M126.36,269.294l-8.043-73.209,50.229-29.054,31.147-27.248,72.922,56.63,12.04,84.479-86.4-26.7Z" transform="translate(1249.916 4868.126)" fill="#0081e4" stroke="#2676bd" stroke-miterlimit="10" stroke-width="1" opacity="0.3"/>
    <path id="Path_379" data-name="Path 379" d="M122.043,271.6l10.505-76.492,47.766-17.235,18.22-21.913,38.41,1.724,24.376,37.179-26.1,34.963L197.879,271.6Z" transform="translate(1250.293 4869.762)" fill="#0081e4" stroke="#2676bd" stroke-miterlimit="10" stroke-width="1" opacity="0.3"/>
    <text id="Expression_Blend" data-name="Expression Blend" transform="translate(1623.162 4956.047)" fill="#525252" font-size="16" font-family="SegoeUI-Semibold, Segoe UI" font-weight="600"><tspan x="-61.402" y="0">Expression Blend</tspan></text>
    <text id="Figma" transform="translate(1628.339 5070.375)" fill="#525252" font-size="16" font-family="Poppins-Semibold, Segoe UI, Arial" font-weight="600"><tspan x="-22.191" y="0">Figma</tspan></text>
    <text id="Lightroom" transform="translate(1600.162 5186.918)" fill="#525252" font-size="16" font-family="Poppins-Semibold, Segoe UI, Arial" font-weight="600"><tspan x="-37.898" y="0">Lightroom</tspan></text>
    <text id="Sketch" transform="translate(1451.401 5226.883)" fill="#525252" font-size="16" font-family="Poppins-Semibold, Segoe UI, Arial" font-weight="600"><tspan x="-23.902" y="0">Sketch</tspan></text>
    <text id="Balsamiq" transform="translate(1307.334 5186.918)" fill="#525252" font-size="16" font-family="Poppins-Semibold, Segoe UI, Arial" font-weight="600"><tspan x="-32.719" y="0">Balsamiq</tspan></text>
    <text id="Adobe_Il" data-name="Adobe Il" transform="translate(1305.334 4956.047)" fill="#525252" font-size="16" font-family="Poppins-Semibold, Segoe UI, Arial" font-weight="600"><tspan x="-30.66" y="0">Adobe Il</tspan></text>
    <text id="PhotoShop" transform="translate(1256.197 5070.375)" fill="#525252" font-size="16" font-family="Poppins-Semibold, Segoe UI, Arial" font-weight="600"><tspan x="-40.34" y="0">PhotoShop</tspan></text>
    <text id="Adobe_Xd" data-name="Adobe Xd" transform="translate(1447.832 4912.992)" fill="#525252" font-size="16" font-family="Poppins-Semibold, Segoe UI, Arial" font-weight="600"><tspan x="-36.012" y="0">Adobe Xd</tspan></text>
  </g>
</svg>
