<svg xmlns="http://www.w3.org/2000/svg" xmlns:xlink="http://www.w3.org/1999/xlink" width="431.825" height="644.745" viewBox="0 0 431.825 644.745">
  <defs>
    <filter id="Path_2440" x="0" y="0.572" width="431.803" height="644.172" filterUnits="userSpaceOnUse">
      <feOffset dy="3" input="SourceAlpha"/>
      <feGaussianBlur stdDeviation="3" result="blur"/>
      <feFlood flood-opacity="0.161"/>
      <feComposite operator="in" in2="blur"/>
      <feComposite in="SourceGraphic"/>
    </filter>
    <filter id="Path_2441" x="1.173" y="0" width="430.652" height="643.859" filterUnits="userSpaceOnUse">
      <feOffset dy="3" input="SourceAlpha"/>
      <feGaussianBlur stdDeviation="3" result="blur-2"/>
      <feFlood flood-opacity="0.161"/>
      <feComposite operator="in" in2="blur-2"/>
      <feComposite in="SourceGraphic"/>
    </filter>
    <filter id="Path_2442" x="0.225" y="0.12" width="431.41" height="644.014" filterUnits="userSpaceOnUse">
      <feOffset dy="3" input="SourceAlpha"/>
      <feGaussianBlur stdDeviation="3" result="blur-3"/>
      <feFlood flood-opacity="0.161"/>
      <feComposite operator="in" in2="blur-3"/>
      <feComposite in="SourceGraphic"/>
    </filter>
  </defs>
  <g id="Figures_Background" transform="translate(9.221 -1435.308)">
    <g transform="matrix(1, 0, 0, 1, -9.22, 1435.31)" filter="url(#Path_2440)">
      <path id="Path_2440-2" data-name="Path 2440" d="M1990,1443.364s181.69,27.019,228.92,152.76-90.024,237.457-40,350.205,224.6,120.225,224.6,120.225" transform="translate(-1980.78 -1435.31)" fill="none" stroke="red" stroke-width="3"/>
    </g>
    <g transform="matrix(1, 0, 0, 1, -9.22, 1435.31)" filter="url(#Path_2441)">
      <path id="Path_2441-2" data-name="Path 2441" d="M1991.036,1442.806s292.945,16.247,181.964,289.723,230.346,333.16,230.346,333.16" transform="translate(-1980.78 -1435.31)" fill="none" stroke="#00b9ff" stroke-width="3"/>
    </g>
    <g transform="matrix(1, 0, 0, 1, -9.22, 1435.31)" filter="url(#Path_2442)">
      <path id="Path_2442-2" data-name="Path 2442" d="M1990.4,1442.875s360.388,97.69,273,282.253-152.8,345.3,139.991,340.718" transform="translate(-1980.78 -1435.31)" fill="none" stroke="#fa0" stroke-width="3"/>
    </g>
  </g>
</svg>
