<svg xmlns="http://www.w3.org/2000/svg" width="481.635" height="363.571" viewBox="0 0 481.635 363.571">
  <g id="Hero-Image" transform="translate(-1174.498 -316.902)">
    <path id="Path_500" data-name="Path 500" d="M653.148,124.155c4.131,8.792-4.623,11.282-14.651,15.994s-17.532,9.862-21.663,1.07-7.483-26.241,6.7-32.907C638.212,101.416,649.017,115.364,653.148,124.155Z" transform="translate(798.9 210.442)" fill="#2f2e41"/>
    <circle id="Ellipse_62" data-name="Ellipse 62" cx="13.5" cy="13.5" r="13.5" transform="translate(1418.089 324.888)" fill="#ffb8b8"/>
    <path id="Path_501" data-name="Path 501" d="M731.045,239.962c-.467-.61-.935-1.209-1.407-1.792q-.915-1.138-1.841-2.2c-7-8.074-14.439-13.158-22.634-13.7h-.011l-.121-.011L688.7,238.171l-5.551,5.408.121.3,3,7.459h52.485a129.086,129.086,0,0,0-7.706-11.372Z" transform="translate(767.423 158.293)" fill="#2f2e41"/>
    <path id="Path_502" data-name="Path 502" d="M620.787,137.788h0l4.832-2.271-.673-6.971,3.231,5.769,2.31-1.085-.393-4.067,1.885,3.365,17.162-8.065h0a14.291,14.291,0,0,0-19.011-6.856l-2.487,1.169a14.291,14.291,0,0,0-6.856,19.011Z" transform="translate(796.121 206.034)" fill="#2f2e41"/>
    <path id="Path_503" data-name="Path 503" d="M587,449.6H305.121a9.079,9.079,0,0,1-9.069-9.069V271.163a6.652,6.652,0,0,1,6.644-6.644h286.61a6.767,6.767,0,0,1,6.759,6.759V440.536A9.079,9.079,0,0,1,587,449.6Z" transform="translate(941.757 139.259)" fill="#f2f2f2"/>
    <path id="Path_504" data-name="Path 504" d="M321.346,452.558H585.634a8.794,8.794,0,0,0,8.794-8.794V300.007a8.794,8.794,0,0,0-8.794-8.794H321.346a8.794,8.794,0,0,0-8.794,8.794V443.764A8.794,8.794,0,0,0,321.346,452.558Z" transform="translate(934.326 127.236)" fill="#fff"/>
    <path id="Path_505" data-name="Path 505" d="M595.834,264.426H295.82v-4.617a9.11,9.11,0,0,1,9.1-9.1h281.81a9.11,9.11,0,0,1,9.1,9.1Z" transform="translate(941.862 145.476)" fill="#ff64cb"/>
    <circle id="Ellipse_63" data-name="Ellipse 63" cx="2.354" cy="2.354" r="2.354" transform="translate(1251.869 400.705)" fill="#fff"/>
    <circle id="Ellipse_64" data-name="Ellipse 64" cx="2.354" cy="2.354" r="2.354" transform="translate(1260.805 400.705)" fill="#fff"/>
    <circle id="Ellipse_65" data-name="Ellipse 65" cx="2.354" cy="2.354" r="2.354" transform="translate(1269.742 400.705)" fill="#fff"/>
    <path id="Path_506" data-name="Path 506" d="M560.33,500.117H536.7a5.228,5.228,0,0,1-5.222-5.222V471.262a5.228,5.228,0,0,1,5.222-5.222H560.33a5.228,5.228,0,0,1,5.222,5.222V494.9A5.228,5.228,0,0,1,560.33,500.117ZM536.7,467.139a4.127,4.127,0,0,0-4.122,4.122V494.9a4.127,4.127,0,0,0,4.122,4.122H560.33a4.127,4.127,0,0,0,4.122-4.122V471.262a4.127,4.127,0,0,0-4.122-4.122Z" transform="translate(835.732 48.501)" fill="#ccc"/>
    <path id="Path_507" data-name="Path 507" d="M562.413,498.926H548.123a1.651,1.651,0,0,1-1.649-1.649V479.689a1.651,1.651,0,0,1,1.649-1.649h10.355a1.653,1.653,0,0,1,1.033.364l3.935,3.163a1.64,1.64,0,0,1,.616,1.285v14.426A1.651,1.651,0,0,1,562.413,498.926Zm-14.291-19.787a.55.55,0,0,0-.55.55v17.588a.55.55,0,0,0,.55.55h14.291a.55.55,0,0,0,.55-.55V482.851a.547.547,0,0,0-.205-.428l-3.936-3.163a.55.55,0,0,0-.344-.121Z" transform="translate(828.977 43.097)" fill="#ccc"/>
    <path id="Path_508" data-name="Path 508" d="M562.818,491.139h-8.794a.55.55,0,1,1,0-1.1h8.794a.55.55,0,0,1,0,1.1Z" transform="translate(825.824 37.692)" fill="#ccc"/>
    <path id="Path_509" data-name="Path 509" d="M562.818,497.139h-8.794a.55.55,0,1,1,0-1.1h8.794a.55.55,0,0,1,0,1.1Z" transform="translate(825.824 34.99)" fill="#ccc"/>
    <path id="Path_510" data-name="Path 510" d="M562.818,503.139h-8.794a.55.55,0,1,1,0-1.1h8.794a.55.55,0,0,1,0,1.1Z" transform="translate(825.824 32.288)" fill="#ccc"/>
    <path id="Path_511" data-name="Path 511" d="M662.33,500.117H638.7a5.227,5.227,0,0,1-5.222-5.222V471.262a5.227,5.227,0,0,1,5.222-5.222H662.33a5.228,5.228,0,0,1,5.222,5.222V494.9A5.228,5.228,0,0,1,662.33,500.117ZM638.7,467.139a4.127,4.127,0,0,0-4.122,4.122V494.9a4.127,4.127,0,0,0,4.122,4.122H662.33a4.127,4.127,0,0,0,4.122-4.122V471.262a4.127,4.127,0,0,0-4.122-4.122Z" transform="translate(789.795 48.501)" fill="#ccc"/>
    <path id="Path_512" data-name="Path 512" d="M664.513,498.132h-15.39a1.651,1.651,0,0,1-1.649-1.649v-8.794a1.651,1.651,0,0,1,1.649-1.649h15.39a1.651,1.651,0,0,1,1.649,1.649v8.794A1.651,1.651,0,0,1,664.513,498.132Zm-15.39-10.993a.55.55,0,0,0-.55.55v8.794a.55.55,0,0,0,.55.55h15.39a.55.55,0,0,0,.55-.55v-8.794a.55.55,0,0,0-.55-.55Z" transform="translate(783.49 39.494)" fill="#ccc"/>
    <path id="Path_513" data-name="Path 513" d="M656.818,494.436a1.65,1.65,0,0,1-.874-.249l-8.212-5.132a.55.55,0,1,1,.583-.932l8.212,5.132a.553.553,0,0,0,.582,0l8.211-5.132a.55.55,0,0,1,.583.932l-8.211,5.132A1.651,1.651,0,0,1,656.818,494.436Z" transform="translate(783.49 38.593)" fill="#ccc"/>
    <path id="Path_514" data-name="Path 514" d="M458.33,500.117H434.7a5.227,5.227,0,0,1-5.222-5.222V471.262a5.227,5.227,0,0,1,5.222-5.222H458.33a5.228,5.228,0,0,1,5.222,5.222V494.9A5.228,5.228,0,0,1,458.33,500.117ZM434.7,467.139a4.127,4.127,0,0,0-4.122,4.122V494.9a4.127,4.127,0,0,0,4.122,4.122H458.33a4.127,4.127,0,0,0,4.122-4.122V471.262a4.127,4.127,0,0,0-4.122-4.122Z" transform="translate(881.669 48.501)" fill="#ccc"/>
    <path id="Path_515" data-name="Path 515" d="M460.513,498.132h-15.39a1.651,1.651,0,0,1-1.649-1.649v-8.794a1.651,1.651,0,0,1,1.649-1.649h15.39a1.651,1.651,0,0,1,1.649,1.649v8.794A1.651,1.651,0,0,1,460.513,498.132Zm-15.39-10.993a.55.55,0,0,0-.55.55v8.794a.55.55,0,0,0,.55.55h15.39a.55.55,0,0,0,.55-.55v-8.794a.55.55,0,0,0-.55-.55Z" transform="translate(875.364 39.494)" fill="#ccc"/>
    <path id="Path_516" data-name="Path 516" d="M460.072,501.51H449.011a1.1,1.1,0,0,1-.952-1.649l3.332-5.771a1.1,1.1,0,0,1,1.9,0l2.152,3.727,1.247-2.159a1.1,1.1,0,0,1,1.9,0l2.427,4.2a1.1,1.1,0,0,1-.952,1.649Zm0-1.1h0l-2.427-4.2-1.722,2.984a.55.55,0,0,1-.476.275h0a.55.55,0,0,1-.476-.275l-2.628-4.552-3.332,5.771Z" transform="translate(873.365 36.116)" fill="#ccc"/>
    <circle id="Ellipse_66" data-name="Ellipse 66" cx="1.099" cy="1.099" r="1.099" transform="translate(1333.129 527.732)" fill="#ccc"/>
    <path id="Path_517" data-name="Path 517" d="M760.677,626.853h-6.739l-3.205-25.991h9.945Z" transform="translate(836.396 46.297)" fill="#ffb8b8"/>
    <path id="Path_518" data-name="Path 518" d="M935.013,759.339H913.286v-.275a8.457,8.457,0,0,1,8.457-8.457h13.271Z" transform="translate(663.779 -79.657)" fill="#2f2e41"/>
    <path id="Path_519" data-name="Path 519" d="M810.677,626.853h-6.739l-3.205-25.991h9.945Z" transform="translate(813.878 46.297)" fill="#ffb8b8"/>
    <path id="Path_520" data-name="Path 520" d="M985.017,759.339H963.289v-.275a8.457,8.457,0,0,1,8.457-8.457h13.271Z" transform="translate(641.259 -79.657)" fill="#2f2e41"/>
    <path id="Path_521" data-name="Path 521" d="M965.721,652.254l-6.241-1.9a2.47,2.47,0,0,1-1.74-2.107l-5.818-55.143a.264.264,0,0,0-.263-.246.258.258,0,0,0-.281.225l-9.746,53.424a2.473,2.473,0,0,1-2.932,1.978l-7.976-1.643a2.482,2.482,0,0,1-1.969-2.59l5.928-87.564,40.2-4.338-5.973,97.686a2.472,2.472,0,0,1-3.189,2.216Z" transform="translate(656.814 9.629)" fill="#2f2e41"/>
    <circle id="Ellipse_67" data-name="Ellipse 67" cx="13.5" cy="13.5" r="13.5" transform="translate(1608.997 463.065)" fill="#ffb8b8"/>
    <path id="Path_522" data-name="Path 522" d="M939.433,501.836l8.716-54.882a20.808,20.808,0,0,1,26.386-16.709h0a20.745,20.745,0,0,1,14.621,23.779l-9.119,49.012Z" transform="translate(652.003 64.998)" fill="#6c63ff"/>
    <path id="Path_523" data-name="Path 523" d="M995.633,557.847a5.527,5.527,0,0,0,.96-8.42l9.012-17.452-10.149,1.083-7,16.406a5.557,5.557,0,0,0,7.179,8.383Z" transform="translate(630.587 18.807)" fill="#ffb8b8"/>
    <path id="Path_524" data-name="Path 524" d="M1001.672,507.245a2.477,2.477,0,0,1-1.334-.633l-3.448-3.186a2.481,2.481,0,0,1-.6-2.778l6.891-16.334-.978-32.275a7.968,7.968,0,1,1,15.789,2.154l1.672,20.288a25.489,25.489,0,0,1-4.913,17.257l-10.747,14.528a2.476,2.476,0,0,1-1.756.991A2.447,2.447,0,0,1,1001.672,507.245Z" transform="translate(626.483 57.91)" fill="#6c63ff"/>
    <path id="Path_525" data-name="Path 525" d="M854.423,378.154a5.527,5.527,0,0,0,7.38,4.167l12.557,15.1,2.96-9.768-12.378-12.845a5.557,5.557,0,0,0-10.518,3.342Z" transform="translate(690.333 91.056)" fill="#ffb8b8"/>
    <path id="Path_526" data-name="Path 526" d="M872.112,392.389a2.476,2.476,0,0,1,1.1-.981l4.278-1.933a2.481,2.481,0,0,1,2.792.531L892.64,402.72l30.1,11.684a7.968,7.968,0,1,1-8.14,13.7l-19.334-6.371a25.488,25.488,0,0,1-13.976-11.252L872.1,394.92a2.477,2.477,0,0,1-.228-2,2.451,2.451,0,0,1,.237-.526Z" transform="translate(682.48 83.081)" fill="#6c63ff"/>
    <path id="Path_527" data-name="Path 527" d="M826.255,375.652l-.55,17.588L815.58,410.835l8.455-19.607Z" transform="translate(807.191 147.723)" opacity="0.1"/>
    <path id="Path_528" data-name="Path 528" d="M980.062,385.779a3.53,3.53,0,0,1-3.864-2.585,5.367,5.367,0,0,0-3.821-4c-2.476-.566-5.5.6-7.318-1.276a3.648,3.648,0,0,1-.866-3.211,7.374,7.374,0,0,1,3.058-4.3,18.722,18.722,0,0,1,10.37-3.875,37.206,37.206,0,0,1,5.838.29,25.837,25.837,0,0,1,5.971,1.091,14.057,14.057,0,0,1,8.8,10.267,16.23,16.23,0,0,1-3.329,13.263,17.426,17.426,0,0,1-6.684,5.089,2.607,2.607,0,0,1-1.982.1c-1.625-.646-1.36-2.66-.619-4,.793-1.437,2.013-2.829,1.376-4.578a3.464,3.464,0,0,0-1.719-1.85c-1.616-.824-3.423-.629-5.16-.428Z" transform="translate(640.887 93.323)" fill="#2f2e41"/>
    <path id="Path_529" data-name="Path 529" d="M701.956,371.3H534.866a9.079,9.079,0,0,1-9.069-9.069V326.5a9.079,9.079,0,0,1,9.069-9.069h167.09a9.079,9.079,0,0,1,9.069,9.069v35.726A9.079,9.079,0,0,1,701.956,371.3Z" transform="translate(838.289 115.428)" fill="#fff"/>
    <path id="Path_530" data-name="Path 530" d="M701.731,371.347H534.641A9.354,9.354,0,0,1,525.3,362V326.277a9.354,9.354,0,0,1,9.344-9.344h167.09a9.354,9.354,0,0,1,9.344,9.344V362A9.354,9.354,0,0,1,701.731,371.347Zm-167.09-53.315a8.254,8.254,0,0,0-8.245,8.245V362a8.254,8.254,0,0,0,8.245,8.245h167.09A8.254,8.254,0,0,0,709.975,362V326.277a8.254,8.254,0,0,0-8.245-8.245Z" transform="translate(838.514 115.653)" fill="#3f3d56"/>
    <path id="Path_531" data-name="Path 531" d="M698.283,369.259H571.866a9.079,9.079,0,0,1-9.069-9.069V341.5a9.079,9.079,0,0,1,9.069-9.069H698.283a9.079,9.079,0,0,1,9.069,9.069V360.19A9.08,9.08,0,0,1,698.283,369.259Z" transform="translate(821.625 108.673)" fill="#f2f2f2"/>
    <circle id="Ellipse_68" data-name="Ellipse 68" cx="10.846" cy="10.846" r="10.846" transform="translate(1409.85 446.168)" fill="#ff64cb"/>
    <path id="Path_532" data-name="Path 532" d="M704.134,373.76,688.825,360.92,673.781,348.3a2.2,2.2,0,0,0-2.832.005l-15,12.676-3.663,3.1-5.523-4.632-16.784-14.077a2.2,2.2,0,0,0-2.832.005l-16.73,14.141-16.993,14.364a.55.55,0,0,0,.356.969l34.84-.067,11.028-.021-.108.091,32.872-.063,31.366-.06a.55.55,0,0,0,.352-.971Z" transform="translate(807.918 103.077)" fill="#3f3d56"/>
    <path id="Path_533" data-name="Path 533" d="M969.22,767.032H863.69a.55.55,0,0,1,0-1.1H969.22a.55.55,0,1,1,0,1.1Z" transform="translate(686.362 -86.559)" fill="#ccc"/>
    <path id="Path_534" data-name="Path 534" d="M739.594,204.069a6.167,6.167,0,0,0-3.985-2.8,5.659,5.659,0,0,0-.912-.115l-41.877-37.441a4.955,4.955,0,0,0-3.094-1.479,4.211,4.211,0,0,0-.7-.022,4.977,4.977,0,0,0-3.276,8.508l16.033,13.977,26.328,22.947a6.542,6.542,0,0,0,.193,1.281,6.192,6.192,0,0,0,5.315,4.6,6.1,6.1,0,0,0,3.326-.55,6.268,6.268,0,0,0,2.133-1.632c.06-.071.115-.137.17-.214a6.207,6.207,0,0,0,.346-7.057Z" transform="translate(766.916 185.338)" fill="#ffb8b8"/>
    <path id="Path_535" data-name="Path 535" d="M645.323,254.276l-.39-15.863-.33-13.164-.225-9.212-.445-17.957A4.972,4.972,0,0,0,635.3,195.2a3.805,3.805,0,0,0-.412.528,4.912,4.912,0,0,0-.857,3.325l.978,26.2.489,13.164.626,16.791a6.628,6.628,0,0,0-.489.775,6.215,6.215,0,1,0,9.69-1.7Z" transform="translate(789.558 171.215)" fill="#ffb8b8"/>
    <path id="Path_536" data-name="Path 536" d="M683.448,194.932l-3.886-10.526-6.288-17.05a8.8,8.8,0,0,0-5.469-5.32c-.1-.033-.2-.066-.3-.093a8.786,8.786,0,0,0-7.277,1l-21.178,13.433a8.845,8.845,0,0,0-2.9,11.955,151.864,151.864,0,0,0,8.646,13.3c2.468,3.358,7.063,3.715,7.86,9.212h15.615l15.808-14.192Z" transform="translate(789.139 185.625)" fill="#ccc"/>
    <circle id="Ellipse_69" data-name="Ellipse 69" cx="12.736" cy="12.736" r="12.736" transform="translate(1217.366 483.723)" fill="#a0616a"/>
    <path id="Path_537" data-name="Path 537" d="M313.07,416.181q.188.15.365.318a5.705,5.705,0,0,1-.229,8.51,5.341,5.341,0,0,1-.447.337l.862,29.1a4.431,4.431,0,0,1-3.048,4.324l-.052.011L286.891,461.3a4.891,4.891,0,1,1-.947-9.736l16.843-1.483,2.913-25.2a5.428,5.428,0,0,1-.534-.544,5.705,5.705,0,0,1,7.9-8.153Z" transform="translate(948.299 71.512)" fill="#a0616a"/>
    <path id="Path_538" data-name="Path 538" d="M139.327,629.082h6.358l3.024-24.521h-9.383Z" transform="translate(1111.75 44.631)" fill="#a0616a"/>
    <path id="Path_539" data-name="Path 539" d="M317.242,751.858h12.52a7.978,7.978,0,0,1,7.979,7.979v.259h-20.5Z" transform="translate(932.214 -80.22)" fill="#2f2e41"/>
    <path id="Path_540" data-name="Path 540" d="M24.366,615.918l5.462,3.252,15.144-19.521-8.062-4.8Z" transform="translate(1163.524 49.005)" fill="#a0616a"/>
    <path id="Path_541" data-name="Path 541" d="M201.174,734.889l10.757,6.4h0a7.978,7.978,0,0,1,2.773,10.937l-.133.223L196.96,741.967Z" transform="translate(986.385 -72.578)" fill="#2f2e41"/>
    <path id="Path_542" data-name="Path 542" d="M279.224,644.073H272.1a2.329,2.329,0,0,1-2.32-2.087l-7.176-67.461a.778.778,0,0,0-1.482-.238l-12.947,28.668-22.922,37.377a2.345,2.345,0,0,1-2.929.916l-9.157-4.029a2.334,2.334,0,0,1-1.063-3.333L233.179,598.6l6.462-29.727c-2.033-12.892,6.681-32.058,6.769-32.251l.043-.094,24-9.381.12.147c9.465,31.062,15.233,64.49,10.974,114.637A2.349,2.349,0,0,1,279.224,644.073Z" transform="translate(979.711 20.979)" fill="#2f2e41"/>
    <path id="Path_543" data-name="Path 543" d="M264.454,511.3l-.112-.235c-.053-.112-5.39-11.368-9.5-23.4a17.745,17.745,0,0,1,1.23-14.221,17.939,17.939,0,0,1,11.439-8.8h0a17.961,17.961,0,0,1,20.847,10.756c3.263,8.16,2.223,16.871,1.245,23.721l-.02.137-.125.06Z" transform="translate(960.743 49.351)" fill="#3f3d56"/>
    <path id="Path_544" data-name="Path 544" d="M293.553,411.253H273.33v-8.816c4.439-1.763,8.782-3.263,11.408,0a8.815,8.815,0,0,1,8.815,8.815Z" transform="translate(951.99 78.012)" fill="#2f2e41"/>
    <path id="Path_545" data-name="Path 545" d="M258.614,401.185c-12.09,0-15.474,15.154-15.474,23.7,0,4.768,2.156,6.473,5.544,7.05l1.2-6.382,2.8,6.656c.952,0,1.952-.014,2.988-.033l.95-1.957,2.119,1.922c8.487.013,15.346,1.25,15.346-7.257C274.087,416.339,271.12,401.185,258.614,401.185Z" transform="translate(965.587 77.709)" fill="#2f2e41"/>
    <path id="Path_546" data-name="Path 546" d="M286.944,767.032H181.414a.55.55,0,0,1,0-1.1H286.944a.55.55,0,0,1,0,1.1Z" transform="translate(993.634 -86.559)" fill="#ccc"/>
    <path id="Path_547" data-name="Path 547" d="M353.83,411.011H330.2a5.228,5.228,0,0,1-5.222-5.222V382.155a5.227,5.227,0,0,1,5.222-5.222H353.83a5.227,5.227,0,0,1,5.222,5.222v23.634A5.228,5.228,0,0,1,353.83,411.011Z" transform="translate(928.732 88.631)" fill="#fff"/>
    <path id="Path_548" data-name="Path 548" d="M353.83,411.011H330.2a5.228,5.228,0,0,1-5.222-5.222V382.155a5.227,5.227,0,0,1,5.222-5.222H353.83a5.227,5.227,0,0,1,5.222,5.222v23.634A5.228,5.228,0,0,1,353.83,411.011ZM330.2,378.032a4.127,4.127,0,0,0-4.122,4.122v23.634a4.127,4.127,0,0,0,4.122,4.122H353.83a4.127,4.127,0,0,0,4.122-4.122V382.155a4.127,4.127,0,0,0-4.122-4.122Z" transform="translate(928.732 88.631)" fill="#3f3d56"/>
    <path id="Path_549" data-name="Path 549" d="M356.013,409.273h-15.39a1.651,1.651,0,0,1-1.649-1.649V396.082a1.651,1.651,0,0,1,1.649-1.649h4.332a1.639,1.639,0,0,1,1.4.784l1.208,1.964h8.445a1.651,1.651,0,0,1,1.649,1.649v8.794a1.651,1.651,0,0,1-1.649,1.649Z" transform="translate(922.427 80.75)" fill="#ff64cb"/>
    <path id="Path_550" data-name="Path 550" d="M332.132,429.615q.115.211.213.434a5.705,5.705,0,0,1-3.514,7.755,5.329,5.329,0,0,1-.543.137L317.79,465.1a4.431,4.431,0,0,1-4.487,2.8l-.053-.01-22.753-6.85a4.891,4.891,0,1,1,2.905-9.34l16.1,5.169,12.464-22.1a5.428,5.428,0,0,1-.281-.709,5.705,5.705,0,0,1,10.447-4.447Z" transform="translate(945.808 66.239)" fill="#a0616a"/>
  </g>
</svg>
