<svg xmlns="http://www.w3.org/2000/svg" width="128.327" height="237.056" viewBox="0 0 128.327 237.056">
  <g id="Laptop-Guy" transform="translate(0)">
    <ellipse id="Ellipse_30" data-name="Ellipse 30" cx="20.546" cy="20.546" rx="20.546" ry="20.546" transform="translate(8.961 4.175)"/>
    <rect id="Rectangle_47" data-name="Rectangle 47" width="11.414" height="17.121" rx="5.707" transform="translate(20.482 43.765)" fill="#fda57d"/>
    <path id="Path_630" data-name="Path 630" d="M199.872,499.039h8.353l3.973-40.773H199.873Z" transform="translate(-113.368 -270.798)" fill="#feb8b8"/>
    <path id="Path_631" data-name="Path 631" d="M192.863,519.677H174.894v11.314h29.283A11.314,11.314,0,0,0,192.863,519.677Z" transform="translate(-91.77 -293.936)" fill="#2f2e41"/>
    <path id="Path_632" data-name="Path 632" d="M192.07,487.686l8.315-3.165-6.108-40.41L182,448.783Z" transform="translate(-90.285 -266.345)" fill="#feb8b8"/>
    <path id="Path_633" data-name="Path 633" d="M161.715,501.01l-16.143,5.066,3.19,10.164,26.307-8.256a10.653,10.653,0,0,0-13.354-6.974h0Z" transform="translate(-46.741 -284.842)" fill="#2f2e41"/>
    <path id="Path_634" data-name="Path 634" d="M264.82,435.1a3.846,3.846,0,0,0,1.352-.246l7.78-2.916a3.894,3.894,0,0,0,2.426-4.47c-1.958-8.8-8.631-38.776-12.285-54.852-4.333-19.069-67.55-22.612-70.239-22.753l-.221-.012-7.111,8.933c-2.57,8.26-1.755,14.7,2.421,19.149,12.186,12.974,48.568,4.923,52.906,3.9L261.186,432.6a3.891,3.891,0,0,0,3.633,2.5Z" transform="translate(-166.369 -229.031)" fill="#2f2e41"/>
    <path id="Path_635" data-name="Path 635" d="M282.768,444.92a3.845,3.845,0,0,0,1.352-.246l7.778-2.917a3.893,3.893,0,0,0,2.426-4.47c-1.958-8.8-8.631-38.776-12.285-54.852-4.333-19.069-67.55-22.612-70.239-22.753l-.221-.012-7.109,8.935c-2.57,8.26-.7,10.812,3.472,15.259,12.185,12.971,47.517,8.814,51.855,7.795l19.339,50.761a3.891,3.891,0,0,0,3.633,2.5Z" transform="translate(-195.526 -232.813)" fill="#2f2e41"/>
    <path id="Path_636" data-name="Path 636" d="M222.473,294.092a9.1,9.1,0,0,0-.763,1.209l-42.526,4.48-6.123-8.394-13.874,7.583,12.024,20.367,52.155-13.3a9.05,9.05,0,1,0-.894-11.948Z" transform="translate(-112.731 -206.168)" fill="#feb8b8"/>
    <path id="Path_637" data-name="Path 637" d="M279.379,327.033a3.881,3.881,0,0,0,1.767-.43c8.5-4.324,25.062-11.812,40.417-13.379a3.788,3.788,0,0,0,2.669-1.509,3.9,3.9,0,0,0,.719-3.027c-1.386-7.67-4.564-27.2-4.154-42.855a21.208,21.208,0,0,0-16.022-21.1h0a68.858,68.858,0,0,0-8.545-1.685,21.38,21.38,0,0,0-23.763,24.8c2.738,16.222,5.5,38.878,3.1,54.694a3.886,3.886,0,0,0,1.568,3.75A3.819,3.819,0,0,0,279.379,327.033Z" transform="translate(-268.462 -187.819)" fill="#ffa000"/>
    <path id="Path_638" data-name="Path 638" d="M268.944,290.062a3.881,3.881,0,0,0,1.541-.322l11.078-4.795a3.885,3.885,0,0,0,2.019-5.1l-8.563-19.782a9.916,9.916,0,0,0-18.256,7.747l.056.13,8.563,19.782a3.89,3.89,0,0,0,3.561,2.341Z" transform="translate(-217.396 -192.109)" fill="#ffa000"/>
    <ellipse id="Ellipse_98" data-name="Ellipse 98" cx="21.178" cy="21.178" rx="21.178" ry="21.178" transform="translate(5.401 7.146)" fill="#fda57d"/>
    <path id="Path_641" data-name="Path 641" d="M309.3,342.154a9.489,9.489,0,1,0-3.658-18.249h0a9.13,9.13,0,0,0-1.13.573l-38.578-17.318L264.848,296.7l-16.629-.445.11,17.419a9.381,9.381,0,0,0,6.779,8.919L300.22,335.43a8.883,8.883,0,0,0,.307.878,9.523,9.523,0,0,0,8.766,5.845Z" transform="translate(-247.503 -208.381)" fill="#fda57d"/>
    <path id="Path_642" data-name="Path 642" d="M331.886,288.5a3.876,3.876,0,0,0,1.519.411l12.049.741a3.885,3.885,0,0,0,4.111-3.634l1.322-21.516a9.916,9.916,0,1,0-19.795-1.218L329.769,284.8a3.89,3.89,0,0,0,2.115,3.7Z" transform="translate(-329.762 -192.093)" fill="#ffa000"/>
    <rect id="Rectangle_91" data-name="Rectangle 91" width="74.153" height="6.035" rx="1.778" transform="translate(25.293 129.912)" fill="#3f3d56"/>
    <path id="Path_643" data-name="Path 643" d="M245.354,335.352V293.1a5.611,5.611,0,0,0-5.6-5.6H163.01a5.611,5.611,0,0,0-5.6,5.6v42.25a5.611,5.611,0,0,0,5.6,5.6h76.74A5.611,5.611,0,0,0,245.354,335.352Z" transform="translate(-118.256 -205.008)" fill="#3f3d56"/>
    <ellipse id="Ellipse_99" data-name="Ellipse 99" cx="5.174" cy="5.174" rx="5.174" ry="5.174" transform="translate(77.027 104.047)" fill="#fff"/>
    <path id="Path_195" data-name="Path 195" d="M377.337,138.457s5.3,1.366,8.281-4.658,5.3-9.309,17.555-5.75,14.721,3.993,15.31.628c.4-2.3-3.955-7.886-6.756-11.194a7.842,7.842,0,0,0-5.978-2.576H391.911l-8.281,3.833-6.293,5.476-1.325,7.392Z" transform="translate(-372.317 -104.733)" opacity="0.05"/>
    <path id="Path_196" data-name="Path 196" d="M377.337,136.457s5.3,1.366,8.281-4.658,5.3-9.309,17.555-5.75,14.721,3.994,15.31.628c.4-2.3-3.955-7.886-6.756-11.194a7.842,7.842,0,0,0-5.978-2.576H391.911l-8.281,3.833-6.293,5.476-1.325,7.392Z" transform="translate(-372.317 -103.396)"/>
    <path id="Path_197" data-name="Path 197" d="M375.189,106.14c-.491-2.773-.974-5.685-.08-8.355a8.617,8.617,0,0,1,5.544-5.407c1.67-.513,3.47-.5,5.13-1.049,2.336-.769,4.167-2.555,6.2-3.944a20.423,20.423,0,0,1,5.858-2.765c1.876-.542,4.084-.751,5.613.464,1.287,1.023,1.734,2.775,2.8,4.029,1.237,1.458,3.16,2.091,4.838,3.008a14.755,14.755,0,0,1,7.489,11.536,2.035,2.035,0,0,1-.6,1.942,2.147,2.147,0,0,1-1.208.221c-8.472-.121-16.955-.243-25.393-1.02a60.923,60.923,0,0,0-7.883-.448,25.788,25.788,0,0,0-11.608,3.275" transform="translate(-369.555 -84.19)"/>
  </g>
</svg>
