<svg xmlns="http://www.w3.org/2000/svg" width="35" height="35" viewBox="0 0 35 35">
  <path id="LinkedIn" d="M34.111,3.008H6.889A3.888,3.888,0,0,0,3,6.9V34.119a3.888,3.888,0,0,0,3.889,3.889H34.111A3.888,3.888,0,0,0,38,34.119V6.9A3.888,3.888,0,0,0,34.111,3.008ZM14.667,30.23H9.761V16.619h4.906ZM12.127,14.124a2.324,2.324,0,0,1-2.5-2.333,2.377,2.377,0,0,1,2.666-2.333,2.324,2.324,0,0,1,2.5,2.333A2.377,2.377,0,0,1,12.127,14.124ZM32.167,30.23H27.418V22.791c0-2.057-1.266-2.532-1.74-2.532s-2.057.317-2.057,2.532V30.23H18.715V16.619h4.906v1.9c.632-1.108,1.9-1.9,4.272-1.9s4.274,1.9,4.274,6.172Z" transform="translate(-3 -3.008)" fill="#fff"/>
</svg>
