<svg xmlns="http://www.w3.org/2000/svg" xmlns:xlink="http://www.w3.org/1999/xlink" width="150.708" height="82.372" viewBox="0 0 150.708 82.372">
  <defs>
    <linearGradient id="linear-gradient" x1="0.5" x2="0.5" y2="1" gradientUnits="objectBoundingBox">
      <stop offset="0" stop-color="#07cdff"/>
      <stop offset="0.576" stop-color="#00cbff"/>
      <stop offset="0.854" stop-color="#009ac0"/>
      <stop offset="1" stop-color="#046780"/>
    </linearGradient>
    <linearGradient id="linear-gradient-2" x1="0.228" y1="0.953" x2="1" y2="-0.179" gradientUnits="objectBoundingBox">
      <stop offset="0" stop-color="#07cdff"/>
      <stop offset="0.465" stop-color="#07cdff"/>
      <stop offset="0.659" stop-color="#0591b4"/>
      <stop offset="1" stop-color="#002f3b"/>
    </linearGradient>
    <linearGradient id="linear-gradient-3" x1="0.228" y1="0.953" x2="1" y2="-0.179" gradientUnits="objectBoundingBox">
      <stop offset="0" stop-color="#07cdff"/>
      <stop offset="0.465" stop-color="#07cdff"/>
      <stop offset="0.75" stop-color="#0591b4"/>
      <stop offset="1" stop-color="#002f3b"/>
    </linearGradient>
    <linearGradient id="linear-gradient-4" x1="1.073" y1="0.268" x2="-0.049" y2="1" gradientUnits="objectBoundingBox">
      <stop offset="0" stop-color="#07cdff"/>
      <stop offset="0.619" stop-color="#06a0c7"/>
      <stop offset="0.74" stop-color="#0591b4"/>
      <stop offset="1" stop-color="#002f3b"/>
    </linearGradient>
    <linearGradient id="linear-gradient-5" x1="0.983" y1="0.893" x2="-0.18" y2="0.103" gradientUnits="objectBoundingBox">
      <stop offset="0" stop-color="#07cdff"/>
      <stop offset="0.582" stop-color="#06a0c7"/>
      <stop offset="0.77" stop-color="#0591b4"/>
      <stop offset="1" stop-color="#002f3b"/>
    </linearGradient>
  </defs>
  <g id="Logo" transform="translate(-170 -59)">
    <g id="Group_8" data-name="Group 8" transform="translate(31.365 23)">
      <path id="Path_58" d="M121.79,160.24h0a5.657,5.657,0,0,0-.31,5.17,275.968,275.968,0,0,1,25.89,58.6c2.04,5.45,8.83,5.45,10.36-7.57,0,0-12.69-45.54-20.67-57.79a3.45,3.45,0,0,0-1.24-1.56h0c-2.92-2.03-6.06-1.28-9.36.08h0C123.94,158.25,123.21,157.84,121.79,160.24Z" transform="translate(17.801 -111.612)" fill="url(#linear-gradient)"/>
      <path id="Path_59" d="M121.91,160.31a5.449,5.449,0,0,0-.16,4.97h0q5.52,8.88,10.34,18.17t8.75,19.08a173.342,173.342,0,0,1,6.61,19.75,10.641,10.641,0,0,0,.82,2.38,6.162,6.162,0,0,0,1.49,1.84,3.133,3.133,0,0,0,2.22.68,3.835,3.835,0,0,0,2.29-1.12,10.763,10.763,0,0,0,2.51-4.51,25.484,25.484,0,0,0,.98-5.11h0c-1.36-4.95-2.81-9.87-4.29-14.76s-3.08-9.77-4.65-14.63-3.35-9.69-5.18-14.47a86.445,86.445,0,0,0-6.53-13.87h0a3.384,3.384,0,0,0-1.36-1.65,6.242,6.242,0,0,0-2-.91,8.237,8.237,0,0,0-4.35.15,43.42,43.42,0,0,0-4.09,1.52,6.74,6.74,0,0,0-2.06.89A5.3,5.3,0,0,0,121.91,160.31Zm-.24-.15a5.9,5.9,0,0,1,1.44-1.7,7.314,7.314,0,0,1,2.06-.86,33.585,33.585,0,0,1,4.19-1.36,8.819,8.819,0,0,1,4.36-.11,6.7,6.7,0,0,1,2,.91,3.407,3.407,0,0,1,1.36,1.66h0a87.994,87.994,0,0,1,6.5,13.91c1.84,4.78,3.54,9.62,5.16,14.49,3.24,9.72,6.21,19.53,9.02,29.39h0a29.709,29.709,0,0,1-1.05,5.11,11.648,11.648,0,0,1-2.45,4.5,4.352,4.352,0,0,1-2.24,1.36,3.447,3.447,0,0,1-2.54-.5,5.085,5.085,0,0,1-1.76-1.95,13.632,13.632,0,0,1-.91-2.45q-3.2-9.93-7.09-19.62a269.845,269.845,0,0,0-18.4-37.42h0A5.871,5.871,0,0,1,121.67,160.16Z" transform="translate(17.801 -111.612)" fill="#002e3f"/>
      <path id="Path_60" d="M147.67,224.72c2.07,5.81,15.33,8.01,19.3-4.18,1.85-8.41,15.24-67.73,31.85-69.84-12.89-4.37-15.47-4.26-24.6,6.53a32.867,32.867,0,0,0-3.84,5.79c-18.31,35.2-9.85,71.72-21.09,63.51a7.969,7.969,0,0,1-1.62-1.81Z" transform="translate(17.801 -111.612)" fill="url(#linear-gradient-2)"/>
      <path id="Path_61" d="M147.67,224.72a7.89,7.89,0,0,0,4.61,3.98,11.179,11.179,0,0,0,6.17.33,10.706,10.706,0,0,0,5.35-3.09,14.607,14.607,0,0,0,3.11-5.45h0a333.705,333.705,0,0,1,10.7-38.03,132.828,132.828,0,0,1,7.78-18.16c3.15-5.72,6.81-11.57,13.37-14.2l-.12,1.13h0c-2.12-.69-4.28-1.46-6.45-2.06a14.838,14.838,0,0,0-6.58-.63,11.989,11.989,0,0,0-5.68,3.2,54.01,54.01,0,0,0-4.61,4.95,30.809,30.809,0,0,0-3.91,5.45c-1.06,2.02-2.07,4.03-3,6.1a107.139,107.139,0,0,0-4.78,12.73,165.3,165.3,0,0,0-5.55,26.61c-.63,4.5-1.09,9.02-1.91,13.53a28.04,28.04,0,0,1-.82,3.37,6.379,6.379,0,0,1-1.83,3.11,2.554,2.554,0,0,1-1.89.45,4.5,4.5,0,0,1-1.7-.68,6.093,6.093,0,0,1-2.26-2.64Zm0,0a8.651,8.651,0,0,0,2.59,2.11,2.565,2.565,0,0,0,2.81.19,5.79,5.79,0,0,0,1.54-2.72,30.478,30.478,0,0,0,.78-3.27c.78-4.46,1.21-9.01,1.81-13.52a156.856,156.856,0,0,1,5.45-26.8,111.326,111.326,0,0,1,4.82-12.83c.95-2.08,1.95-4.09,3.05-6.16a32.766,32.766,0,0,1,4.02-5.61,46.674,46.674,0,0,1,4.78-4.96,12.745,12.745,0,0,1,6.16-3.35,16.6,16.6,0,0,1,6.94.42,58,58,0,0,1,6.6,1.93h0l1.93,1.73-2.06-.65a3.775,3.775,0,0,0-2.39.18,11.066,11.066,0,0,0-2.13,1.24,20.177,20.177,0,0,0-3.54,3.43,48.165,48.165,0,0,0-5.45,8.26,134.957,134.957,0,0,0-7.74,18.16,334.132,334.132,0,0,0-10.63,38.04h0a14.767,14.767,0,0,1-3.12,5.45,11.029,11.029,0,0,1-5.45,3.15,11.343,11.343,0,0,1-6.27-.33,9.359,9.359,0,0,1-2.73-1.55A4.98,4.98,0,0,1,147.67,224.72Z" transform="translate(17.801 -111.612)" fill="#002e3f"/>
      <path id="Path_62" d="M198.14,223.5c-.29,1.68-.61,3.39.5,4.09,2.49,1.69,13.48,1.19,14.38,1.08,1.95,0,3.64-.59,3.96-3.76,4.36-22.4,6.73-43.14.2-59.96a23.625,23.625,0,0,0-9.77-11.69c-6.28-3.89-20.44-6.68-21.53-5.22C208.84,147.24,209.63,186.14,198.14,223.5Z" transform="translate(17.801 -111.612)" fill="url(#linear-gradient-3)"/>
      <path id="Path_63" d="M198.19,223.51a18.723,18.723,0,0,0-.27,2.11,1.911,1.911,0,0,0,.75,1.83h0a9.223,9.223,0,0,0,3.46.89c1.2.12,2.4.18,3.61.19s2.41,0,3.63,0a27.184,27.184,0,0,0,3.61-.16h0a3.453,3.453,0,0,0,3.93-2.89,4.584,4.584,0,0,0,.04-.64h0a244.945,244.945,0,0,0,3.72-24.41,93.723,93.723,0,0,0-.65-24.53,61.142,61.142,0,0,0-3.34-11.88,23.53,23.53,0,0,0-7.53-9.54,33.875,33.875,0,0,0-11.19-4.96,51.219,51.219,0,0,0-6.01-1.36c-1.01-.18-2.02-.33-3.05-.42a13.187,13.187,0,0,0-1.54,0,2.424,2.424,0,0,0-1.46.35h0a6.576,6.576,0,0,1,2.72-.2,7.719,7.719,0,0,1,1.36.11l1.36.34a14.479,14.479,0,0,1,4.95,2.47,17.139,17.139,0,0,1,3.79,4.09,26.319,26.319,0,0,1,2.62,4.84c2.73,6.81,3.3,14.23,3.3,21.45a118.574,118.574,0,0,1-2.4,21.41A186.548,186.548,0,0,1,198.19,223.51Zm-.1,0a179.1,179.1,0,0,0,4.82-21.05,141.007,141.007,0,0,0,1.88-21.42c0-7.13-.57-14.39-3.12-21.03a24.128,24.128,0,0,0-2.44-4.67,15.492,15.492,0,0,0-3.53-3.87,13.468,13.468,0,0,0-4.65-2.4l-1.27-.34a6.269,6.269,0,0,1-1.36-.25,2.065,2.065,0,0,1-.34.15h0v-.2h-.91a10.655,10.655,0,0,1-1.36-.3h0a2.345,2.345,0,0,1,1.46-.38,13.359,13.359,0,0,1,1.55,0c1.03.08,2.05.2,3.07.37,2.03.35,4.05.81,6.04,1.36a33.9,33.9,0,0,1,11.28,4.95,23.817,23.817,0,0,1,7.7,9.54,55.939,55.939,0,0,1,3.28,11.91,99.6,99.6,0,0,1,.42,24.64c-.76,8.18-2.15,16.35-3.69,24.41h0a5,5,0,0,1-1.02,2.93,4.09,4.09,0,0,1-2.96,1.08h0c-1.24.1-2.44.11-3.65.12s-2.44,0-3.65-.07-2.43-.15-3.64-.33a10.193,10.193,0,0,1-3.5-1h0a1.493,1.493,0,0,1-.68-.86,3.322,3.322,0,0,1-.12-1.09,15.194,15.194,0,0,1,.4-2.22Z" transform="translate(17.801 -111.612)" fill="#002e3f"/>
      <path id="Path_489" d="M267.95,154.14h0a3.9,3.9,0,0,0-4.21-.31,207.459,207.459,0,0,1-47.79,25.65c-4.45,2.03-6.19,10.04,5.27,10.64,0,0,38.04-12.95,48.03-20.86a2.956,2.956,0,0,0,1.27-1.23h0c1.66-2.89,1.05-6.01-.07-9.28h0C269.57,156.28,269.91,155.55,267.95,154.14Z" transform="translate(17.801 -111.612)" fill="url(#linear-gradient-4)"/>
      <path id="Path_490" d="M267.88,154.27a3.776,3.776,0,0,0-4.06-.16h0q-7.23,5.475-14.83,10.25a165.353,165.353,0,0,1-15.56,8.67,129.684,129.684,0,0,1-16.32,6.63,11.58,11.58,0,0,0-1.49.83,5.916,5.916,0,0,0-1.72,1.37c-.42.65-1.69,1.9-1.63,2.68.07.83,1.46,1.15,1.99,1.79a8.393,8.393,0,0,0,3.67,2.48,17.558,17.558,0,0,0,4.17.97h0c4.03-1.35,8.05-2.78,12.04-4.25s7.97-3.05,11.94-4.6,7.9-3.32,11.8-5.13a66.373,66.373,0,0,0,11.32-6.47h0a2.943,2.943,0,0,0,1.35-1.35,6.728,6.728,0,0,0,.74-1.99,9.8,9.8,0,0,0-.12-4.31c-.3-1.42-.85-2.7-1.24-4.05a7.744,7.744,0,0,0-.72-2.04A5.06,5.06,0,0,0,267.88,154.27Zm.13-.25a5.115,5.115,0,0,1,1.39,1.43,8.208,8.208,0,0,1,.7,2.04,41.542,41.542,0,0,1,1.11,4.15,10.484,10.484,0,0,1,.09,4.32,7.588,7.588,0,0,1-.74,1.99,2.965,2.965,0,0,1-1.36,1.35h0a66.489,66.489,0,0,1-11.35,6.44c-3.9,1.82-7.85,3.51-11.81,5.12-7.92,3.21-15.93,6.16-23.97,8.94h0a20.7,20.7,0,0,1-4.17-1.04,9.159,9.159,0,0,1-3.67-2.43c-.57-.62-1.36-1.21-1.52-2.04a4.957,4.957,0,0,1,.82-2.69,4.3,4.3,0,0,1,1.4-1.82,10.831,10.831,0,0,1,2.07-.97c5.4-2.11,10.85-4.29,16.12-6.87a207.422,207.422,0,0,0,30.53-18.23h0A4.018,4.018,0,0,1,268.01,154.02Z" transform="translate(17.801 -111.612)" fill="#002e3f"/>
      <path id="Path_493" data-name="Path 493" d="M216.25,179.42c-6.67.8-7.56,16.34.97,20.46,5.88,1.93,41.71,28.71,45.41,29.65s9.31-13.96,5.12-15.65c-1.25-1.54-11.47-8.35-12.91-9.47-35.61-20.26-46.82-15.5-40.86-23.22A11.421,11.421,0,0,1,216.25,179.42Z" transform="translate(17.801 -111.612)" fill="url(#linear-gradient-5)"/>
      <path id="Path_494" data-name="Path 494" d="M216.25,179.42a4.615,4.615,0,0,0-2.72,1.41,7.831,7.831,0,0,0-1.61,2.65,14.382,14.382,0,0,0-.77,6.14,14.566,14.566,0,0,0,1.75,5.92,10.051,10.051,0,0,0,4.38,4.23l-.02-.01a27.126,27.126,0,0,1,4.08,2.11c1.31.78,2.6,1.6,3.88,2.42,2.56,1.65,5.09,3.35,7.62,5.05l15.08,10.32c2.51,1.72,5.03,3.44,7.56,5.12,1.27.84,2.54,1.67,3.83,2.48.64.4,1.29.79,1.94,1.16.33.18.66.36.98.51a1.569,1.569,0,0,0,.88.22,3.088,3.088,0,0,0,1.63-1.08,11.5,11.5,0,0,0,1.28-1.78,20.693,20.693,0,0,0,1.81-4.08,17.748,17.748,0,0,0,.9-4.34,7.4,7.4,0,0,0-.14-2.12,1.906,1.906,0,0,0-1.03-1.41h0l-.1-.05-.1-.1a27.093,27.093,0,0,0-3.02-2.42c-1.08-.78-2.17-1.54-3.26-2.3l-3.3-2.26c-1.11-.76-2.2-1.48-3.32-2.3l.07.05a217.2,217.2,0,0,0-24.02-11.8c-4.12-1.72-8.31-3.23-12.54-4.73-1.06-.39-2.11-.77-3.17-1.25a9.172,9.172,0,0,1-1.56-.85,2.506,2.506,0,0,1-.94-3.6,10.647,10.647,0,0,1,.95-1.5,5.987,5.987,0,0,1,.59-.71,5.474,5.474,0,0,1,.7-.59A2.67,2.67,0,0,1,216.25,179.42Zm0,0a2.95,2.95,0,0,1-1.06,1.38,4.635,4.635,0,0,0-.57.5,4.361,4.361,0,0,0-.48.59,9.272,9.272,0,0,0-.84,1.34,1.834,1.834,0,0,0-.24,1.23c.18.68,1.26,1.25,2.21,1.67.99.44,2.04.81,3.09,1.18,4.22,1.46,8.47,2.95,12.63,4.65a202.633,202.633,0,0,1,24.15,11.91l.04.02.04.03c1.03.77,2.15,1.55,3.23,2.31l3.27,2.32c1.09.78,2.17,1.57,3.25,2.37a26.2,26.2,0,0,1,3.17,2.65l-.2-.15h0a2.88,2.88,0,0,1,1.6,2.1,7.956,7.956,0,0,1,.15,2.42,18.554,18.554,0,0,1-1,4.57,21.549,21.549,0,0,1-1.94,4.23,11.7,11.7,0,0,1-1.4,1.91,3.808,3.808,0,0,1-2.15,1.32,2.257,2.257,0,0,1-1.31-.3c-.36-.17-.7-.36-1.03-.55-.67-.39-1.32-.79-1.96-1.2-1.29-.82-2.56-1.67-3.82-2.53q-3.78-2.565-7.52-5.2l-14.97-10.48c-2.5-1.73-5.02-3.45-7.56-5.12q-1.905-1.26-3.85-2.46a26.5,26.5,0,0,0-4-2.13h-.01a10.24,10.24,0,0,1-4.44-4.37,14.9,14.9,0,0,1-1.71-6.01,14.384,14.384,0,0,1,.84-6.17,7.643,7.643,0,0,1,1.65-2.64A4.613,4.613,0,0,1,216.25,179.42Z" transform="translate(17.801 -111.612)" fill="#002e3f"/>
    </g>
  </g>
</svg>
