<svg xmlns="http://www.w3.org/2000/svg" width="147" height="141.478" viewBox="0 0 147 141.478">
  <g id="Logo" transform="translate(-5.48 -3.457)">
    <path id="Path_1209" data-name="Path 1209" d="M27,87.62" transform="translate(9.163 35.186)" fill="none" stroke="#1b1b1b" stroke-linecap="round" stroke-miterlimit="10" stroke-width="0.42"/>
    <path id="Path_1210" data-name="Path 1210" d="M118.034,19.39A66.742,66.742,0,0,1,27.31,117.015" transform="translate(9.295 6.134)" fill="none" stroke="#fff" stroke-linecap="round" stroke-miterlimit="10" stroke-width="3"/>
    <path id="Path_1211" data-name="Path 1211" d="M26.819,115.648a66.756,66.756,0,0,1,90.453-97.225" transform="translate(2.073 0)" fill="none" stroke="#fff" stroke-linecap="round" stroke-miterlimit="10" stroke-width="3"/>
    <path id="Path_1212" data-name="Path 1212" d="M50.272,61.162,58.5,74.223H54.835a209.59,209.59,0,0,1,16.3-21.4A218.218,218.218,0,0,1,89.909,33.63a170.181,170.181,0,0,1,21.145-16.411A125.9,125.9,0,0,1,134.694,5a125.9,125.9,0,0,0-23.069,13.1,169.2,169.2,0,0,0-20.261,17.11A216.451,216.451,0,0,0,73.655,54.9a207.53,207.53,0,0,0-15.17,21.515h0l-2,3.008L54.82,76.39,47.349,62.873A1.7,1.7,0,0,1,50.2,61.162Z" transform="translate(17.786 0.006)" fill="#fff"/>
    <path id="Path_1213" data-name="Path 1213" d="M93.68,52.772V55.41a10.31,10.31,0,0,1,0,1.112,9.567,9.567,0,0,1-4.89,7.443l-3.165,1.711Q79.365,69.112,73.191,72.8,60.851,80.119,49,88.2c-7.9,5.4-15.527,11.178-22.813,17.309a190.74,190.74,0,0,0-20.7,19.961,190.316,190.316,0,0,1,19.961-20.745C32.57,98.269,40.056,92.21,47.755,86.435s15.5-11.321,23.626-16.554q6.045-3.935,12.248-7.657l3.094-1.839a5.7,5.7,0,0,0,1.811-1.811,5.233,5.233,0,0,0,.784-2.41V52.772A2.124,2.124,0,0,1,91.5,50.69a2.167,2.167,0,0,1,2.181,2.082Z" transform="translate(0 19.461)" fill="#fff"/>
    <circle id="Ellipse_85" data-name="Ellipse 85" cx="2.11" cy="2.11" r="2.11" transform="translate(89.431 63.507)" fill="#fff" stroke="#fff" stroke-linecap="round" stroke-miterlimit="10" stroke-width="0.55"/>
  </g>
</svg>
