<svg xmlns="http://www.w3.org/2000/svg" width="44" height="44" viewBox="0 0 44 44">
  <path id="Palette" d="M36.833,24a3.5,3.5,0,1,1,3.5-3.5,3.5,3.5,0,0,1-3.5,3.5m-7-9.333a3.5,3.5,0,1,1,3.5-3.5,3.5,3.5,0,0,1-3.5,3.5m-11.667,0a3.5,3.5,0,1,1,3.5-3.5,3.5,3.5,0,0,1-3.5,3.5m-7,9.333a3.5,3.5,0,1,1,3.5-3.5,3.5,3.5,0,0,1-3.5,3.5M24,3a21,21,0,0,0,0,42,3.5,3.5,0,0,0,3.5-3.5,3.425,3.425,0,0,0-.91-2.333,3.614,3.614,0,0,1-.887-2.333,3.5,3.5,0,0,1,3.5-3.5h4.13A11.667,11.667,0,0,0,45,21.667C45,11.353,35.6,3,24,3Z" transform="translate(-2 -2)" fill="#fff" stroke="#0081e4" stroke-width="2"/>
</svg>
