<svg xmlns="http://www.w3.org/2000/svg" xmlns:xlink="http://www.w3.org/1999/xlink" width="683.586" height="508.572" viewBox="0 0 683.586 508.572">
  <defs>
    <filter id="Path_430" x="0" y="0" width="683.586" height="508.572" filterUnits="userSpaceOnUse">
      <feOffset input="SourceAlpha"/>
      <feGaussianBlur stdDeviation="7.5" result="blur"/>
      <feFlood flood-opacity="0.302"/>
      <feComposite operator="in" in2="blur"/>
      <feComposite in="SourceGraphic"/>
    </filter>
  </defs>
  <g transform="matrix(1, 0, 0, 1, 0, 0)" filter="url(#Path_430)">
    <g id="Path_430-2" data-name="Path 430" transform="translate(22.5 22.5)" fill="#fff">
      <path d="M 607.5859985351563 463.0714721679688 L 532.8118896484375 463.0714721679688 L 31.00005149841309 463.0714721679688 C 26.88238525390625 463.0714721679688 22.88813591003418 462.26513671875 19.12821960449219 460.6748046875 C 15.49638557434082 459.1387329101563 12.23455238342285 456.9394836425781 9.43330192565918 454.1382141113281 C 6.632051944732666 451.3369750976563 4.432802200317383 448.0751342773438 2.896718740463257 444.4432983398438 C 1.306385397911072 440.6833801269531 0.5000520944595337 436.6891479492188 0.5000520944595337 432.5714721679688 L 0.5000520944595337 30.99997138977051 C 0.5000520944595337 26.88230323791504 1.306385397911072 22.88805389404297 2.896718740463257 19.12813758850098 C 4.432802200317383 15.49630451202393 6.632051944732666 12.23447036743164 9.43330192565918 9.433220863342285 C 12.23455238342285 6.631970882415771 15.49638557434082 4.43272066116333 19.12821960449219 2.896637439727783 C 22.88813591003418 1.306304216384888 26.88238525390625 0.4999708235263824 31.00005149841309 0.4999708235263824 L 607.5859985351563 0.4999708235263824 C 611.70361328125 0.4999708235263824 615.6978759765625 1.306304216384888 619.4578247070313 2.896637439727783 C 623.0896606445313 4.43272066116333 626.3514404296875 6.631970882415771 629.1527099609375 9.433220863342285 C 631.9539794921875 12.23447036743164 634.1531982421875 15.49630451202393 635.6893310546875 19.12813758850098 C 637.2796630859375 22.88805389404297 638.0859985351563 26.88230323791504 638.0859985351563 30.99997138977051 L 638.0859985351563 432.5714721679688 C 638.0859985351563 436.6891479492188 637.2796630859375 440.6833801269531 635.6893310546875 444.4432983398438 C 634.1531982421875 448.0751342773438 631.9539794921875 451.3369750976563 629.1527099609375 454.1382141113281 C 626.3514404296875 456.9394836425781 623.0896606445313 459.1387329101563 619.4578247070313 460.6748046875 C 615.6978759765625 462.26513671875 611.70361328125 463.0714721679688 607.5859985351563 463.0714721679688 Z" stroke="none"/>
      <path d="M 30.99993896484375 0.999969482421875 C 26.94952392578125 0.999969482421875 23.02081298828125 1.793060302734375 19.3228759765625 3.357147216796875 C 15.7506103515625 4.8680419921875 12.542236328125 7.03131103515625 9.78680419921875 9.78680419921875 C 7.03131103515625 12.54220581054688 4.8680419921875 15.75064086914063 3.35711669921875 19.3228759765625 C 1.79302978515625 23.02081298828125 0.99993896484375 26.94955444335938 0.99993896484375 30.99996948242188 L 0.99993896484375 432.5714721679688 C 0.99993896484375 436.6218872070313 1.79302978515625 440.5505676269531 3.35711669921875 444.2484741210938 C 4.8680419921875 447.8207092285156 7.03131103515625 451.0291442871094 9.78680419921875 453.7846374511719 C 12.542236328125 456.5401306152344 15.7506103515625 458.7033996582031 19.3228759765625 460.2142944335938 C 23.02081298828125 461.7783813476563 26.94952392578125 462.5714721679688 30.99993896484375 462.5714721679688 L 532.8118896484375 462.5714721679688 L 607.5858764648438 462.5714721679688 C 611.6362915039063 462.5714721679688 615.5650634765625 461.7783813476563 619.262939453125 460.2142944335938 C 622.835205078125 458.7033996582031 626.0436401367188 456.5401306152344 628.7991333007813 453.7846374511719 C 631.5545654296875 451.0291442871094 633.7177734375 447.8207092285156 635.2286987304688 444.2484741210938 C 636.7927856445313 440.5505676269531 637.5858764648438 436.6218872070313 637.5858764648438 432.5714721679688 L 637.5858764648438 30.99996948242188 C 637.5858764648438 26.94955444335938 636.7927856445313 23.02081298828125 635.2286987304688 19.3228759765625 C 633.7177734375 15.75064086914063 631.5545654296875 12.54220581054688 628.7991333007813 9.78680419921875 C 626.0436401367188 7.03131103515625 622.835205078125 4.8680419921875 619.262939453125 3.357147216796875 C 615.5650634765625 1.793060302734375 611.6362915039063 0.999969482421875 607.5858764648438 0.999969482421875 L 30.99993896484375 0.999969482421875 M 30.99993896484375 -3.0517578125e-05 L 607.5858764648438 -3.0517578125e-05 C 624.706787109375 -3.0517578125e-05 638.5858764648438 13.879150390625 638.5858764648438 30.99996948242188 L 638.5858764648438 432.5714721679688 C 638.5858764648438 449.6922302246094 624.706787109375 463.5714721679688 607.5858764648438 463.5714721679688 L 532.8118896484375 463.5714721679688 L 30.99993896484375 463.5714721679688 C 13.879150390625 463.5714721679688 -6.103515625e-05 449.6922302246094 -6.103515625e-05 432.5714721679688 L -6.103515625e-05 30.99996948242188 C -6.103515625e-05 13.879150390625 13.879150390625 -3.0517578125e-05 30.99993896484375 -3.0517578125e-05 Z" stroke="none" fill="#aeaeae"/>
    </g>
  </g>
</svg>
