<svg xmlns="http://www.w3.org/2000/svg" width="56.369" height="77.459" viewBox="0 0 56.369 77.459">
  <g id="Plant" transform="translate(-140.603 -3547.084)">
    <path id="Path_171" data-name="Path 171" d="M166.936,612.6c0,16.55,9.839,22.329,21.975,22.329.283,0,.564,0,.843-.011.562-.012,1.12-.037,1.669-.076,10.954-.774,19.464-6.852,19.464-22.242,0-15.927-20.35-36.024-21.885-37.517l0,0c-.058-.058-.089-.087-.089-.087S166.936,596.048,166.936,612.6Z" transform="translate(-20.182 2972.091)" fill="#649600"/>
    <path id="Path_172" data-name="Path 172" d="M210.266,632.4l-8.038-11.23,8.058,12.463.021,1.289c.562-.012,1.12-.037,1.669-.076l-.866-16.557.006-.128-.015-.024-.081-1.564,8.078-12.495L211,615.394l-.02.331-.655-12.51,6.916-12.91-7,10.712-.681-25.935,0-.089v.087l.113,20.452-6.884-8.109,6.913,9.87.182,11.2-6.428-10.749,6.456,12.4.1,6.227-9.332-14.963,9.367,17.136Z" transform="translate(-40.736 2972.091)" fill="#f2f2f2"/>
    <rect id="Rectangle_14" data-name="Rectangle 14" width="56.369" height="23.987" rx="11.994" transform="translate(140.603 3600.557)" fill="#ffa000"/>
  </g>
</svg>
